<svg width="115" height="159" viewBox="0 0 115 159" fill="none" xmlns="http://www.w3.org/2000/svg">
<g clip-path="url(#clip0)">
<path d="M57.5372 148.285C89.3141 148.285 115.074 140.603 115.074 131.127C115.074 121.65 89.3141 113.968 57.5372 113.968C25.7603 113.968 0 121.65 0 131.127C0 140.603 25.7603 148.285 57.5372 148.285Z" fill="black"/>
<mask id="mask0" mask-type="alpha" maskUnits="userSpaceOnUse" x="0" y="113" width="116" height="36">
<path d="M57.5372 148.285C89.3141 148.285 115.074 140.603 115.074 131.127C115.074 121.65 89.3141 113.968 57.5372 113.968C25.7603 113.968 0 121.65 0 131.127C0 140.603 25.7603 148.285 57.5372 148.285Z" fill="black"/>
</mask>
<g mask="url(#mask0)">
<path d="M81.177 131.501C78.5752 139.294 78.1291 148.135 78.3522 150.683L75.007 159L38.3586 155.928C39.8454 150.533 39.8454 140.118 37.4666 133.449C35.1621 126.781 81.177 131.501 81.177 131.501Z" fill="#FAD779"/>
</g>
<path d="M27.43 86.5436C25.4972 102.504 37.4655 133.449 37.4655 133.449L81.1016 131.501C86.9742 115.466 91.3602 98.907 94.185 82.0479C97.6788 61.2924 92.9956 20.6808 86.1565 19.7067C77.6821 18.5078 84.1494 47.2807 84.0007 69.9093C84.0007 72.2321 79.0201 59.9437 79.0201 59.9437" fill="#FAD779"/>
<path d="M35.6083 85.6443C29.7356 80.5491 23.3426 76.0534 16.5779 72.1571C15.3885 71.4827 14.1248 70.8083 12.7867 70.5835C11.4486 70.3587 9.88754 70.6585 8.99549 71.6325C8.0291 72.7565 7.88043 74.4049 8.40079 75.8286C8.92115 77.2522 9.88754 78.3762 10.8539 79.5001C16.9496 86.3187 24.309 92.0133 32.4861 96.2094" fill="#FAD779"/>
<path d="M53.2248 107.673C64.7471 107.673 73.8906 105.5 78.2022 102.653C85.7103 97.7076 84.8182 86.1685 84.5209 77.177C84.1492 63.9895 83.7775 50.8019 83.4058 37.6893C83.1085 26.9744 83.7032 11.3142 75.8234 4.12094C69.133 -1.87341 56.4957 0.299542 48.9876 0.674188C38.952 1.19869 27.4297 -0.449751 20.5163 6.96825C14.4207 13.562 14.1233 24.2769 14.272 33.2684C14.495 53.5743 14.7924 62.6407 15.0154 82.9466C15.0897 86.5432 15.164 100.105 16.9481 103.252C18.7322 106.399 21.9287 107.748 26.0173 107.748C25.943 107.823 44.0813 107.673 53.2248 107.673Z" fill="black"/>
<path d="M42.8926 5.99421C36.5739 6.219 26.6127 8.7666 23.2675 11.6139C20.6657 13.8618 19.6249 25.5508 19.7736 32.2195C20.1453 46.9056 20.517 61.5918 20.963 76.2779C21.3347 89.0159 20.1453 94.7105 22.7471 98.6068C25.1259 102.129 40.5138 100.33 47.7988 100.405C52.9281 100.48 70.2487 103.552 76.6418 96.6587C80.2099 92.8373 79.9126 80.6238 79.7639 75.3788C79.1692 54.8481 79.9126 13.9367 72.1815 9.2911C64.1531 4.4207 53.4485 5.6945 42.8926 5.99421Z" fill="white"/>
<path d="M74.1146 21.5349C74.5606 18.3879 72.4049 14.4916 69.6544 12.9181C66.9039 11.3446 63.7074 11.0448 60.5852 10.7451C54.2665 10.1457 30.9989 9.62119 27.059 12.9181C22.5988 16.6645 22.2271 23.4082 22.1528 29.3276C22.0784 43.9388 22.9705 88.8215 24.3085 92.7927C25.7953 97.2885 37.7636 96.2395 43.9336 96.3893C49.2859 96.4643 57.5374 95.8648 59.9162 96.0896C66.3835 96.6141 70.9181 94.2164 73.8173 89.5708C77.3855 83.8761 76.4191 73.6858 76.1217 66.8672C75.527 52.181 74.1146 21.5349 74.1146 21.5349Z" fill="#E5F6E5"/>
<mask id="mask1" mask-type="alpha" maskUnits="userSpaceOnUse" x="22" y="10" width="55" height="87">
<path d="M74.1146 21.5349C74.5606 18.3879 72.4049 14.4916 69.6544 12.9181C66.9039 11.3446 63.7074 11.0448 60.5852 10.7451C54.2665 10.1457 30.9989 9.62119 27.059 12.9181C22.5988 16.6645 22.2271 23.4082 22.1528 29.3276C22.0784 43.9388 22.9705 88.8215 24.3085 92.7927C25.7953 97.2885 37.7636 96.2395 43.9336 96.3893C49.2859 96.4643 57.5374 95.8648 59.9162 96.0896C66.3835 96.6141 70.9181 94.2164 73.8173 89.5708C77.3855 83.8761 76.4191 73.6858 76.1217 66.8672C75.527 52.181 74.1146 21.5349 74.1146 21.5349Z" fill="#E5F6E5"/>
</mask>
<g mask="url(#mask1)">
<path d="M18.5849 31.1704C38.433 38.8881 56.1253 23.5276 78.7982 28.473L79.8389 98.6817L16.8008 103.327L18.5849 31.1704Z" fill="#4ECDC4"/>
<path d="M33.3025 22.3287C34.8636 23.9771 37.6141 24.2768 39.3982 22.7783C41.1079 21.2797 41.3309 18.4324 39.9185 16.709C38.5061 14.9856 35.6813 14.6859 33.8972 16.0346C32.1131 17.4583 31.8158 20.3056 33.1538 22.1039C33.5999 22.7033 34.5662 22.1039 34.1202 21.5045C33.1538 20.2307 33.1538 18.2825 34.3432 17.0836C35.607 15.8098 37.9114 15.9597 39.0265 17.3084C40.1415 18.5822 39.9185 20.7552 38.6548 21.8042C37.3167 22.9281 35.2353 22.7033 34.1202 21.4295C33.5999 20.98 32.8565 21.8042 33.3025 22.3287Z" fill="black"/>
<path d="M34.6406 16.6338C35.161 16.7087 35.6813 16.7836 36.2017 17.0084C36.7221 17.2332 37.1681 17.5329 37.3911 18.0574C37.4654 18.2073 37.5398 18.4321 37.5398 18.6569C37.8371 20.0056 38.2088 21.3543 38.5062 22.6281" fill="black"/>
<path d="M34.4911 17.1585C35.0858 17.2334 35.6805 17.3083 36.2009 17.608C36.7956 17.9827 36.9443 18.5072 37.093 19.1815C37.3903 20.3804 37.6876 21.5793 37.9107 22.7782C38.0593 23.5274 39.2487 23.2277 39.0257 22.4784C38.654 20.9798 38.5054 19.1066 37.8363 17.7579C37.2416 16.559 35.9779 16.2593 34.7885 16.1094C34.0451 15.9596 33.7478 17.0835 34.4911 17.1585Z" fill="black"/>
<path d="M34.641 16.2593C34.418 16.8587 33.8233 18.3573 34.1206 18.9567C34.4923 19.4812 35.0127 19.9308 35.533 20.3804C36.4251 21.1297 37.3915 21.879 38.2835 22.6283" fill="black"/>
<path d="M34.1198 16.1096C33.7481 17.1586 33.1534 18.3574 33.8225 19.4065C34.7888 20.8301 36.6473 21.954 37.9853 23.0031C38.58 23.4526 39.3978 22.6284 38.8031 22.1788C37.7623 21.2797 36.6473 20.4555 35.6066 19.5563C35.0119 19.0318 34.6402 18.5822 34.8632 17.8329C34.9375 17.3834 35.1605 16.9338 35.3092 16.4842C35.5322 15.7349 34.3428 15.4352 34.1198 16.1096Z" fill="black"/>
<path d="M35.5332 19.7813C35.9049 20.081 36.4253 20.1559 36.8713 19.7813C37.243 19.4067 37.3173 18.8072 36.9456 18.4326C36.5739 18.0579 35.9792 17.983 35.6075 18.3576C35.2359 18.6574 35.1615 19.2568 35.4589 19.6314C35.9049 20.2309 36.8713 19.6314 36.4253 19.032C36.4253 19.1069 36.3509 19.1819 36.1279 19.1819C36.0536 19.1819 36.0536 18.7323 36.3509 18.9571C35.8306 18.5824 35.0128 19.3317 35.5332 19.7813Z" fill="#E5E5E5"/>
</g>
<path d="M55.6788 88.4918C60.362 88.5667 65.5657 88.5667 68.9852 85.9442C72.479 83.2467 72.4047 78.1515 68.6878 75.6789C65.863 73.7307 61.8488 73.5808 58.1319 73.5059C54.192 73.431 50.2521 73.2811 46.3123 73.2062C43.0414 73.1313 39.7706 73.0563 36.6484 73.6558C33.5262 74.2552 30.4784 75.7538 28.9173 78.0017C26.9102 80.9988 26.2412 85.5695 29.6607 87.8174C33.0059 90.0653 47.13 88.3419 55.6788 88.4918Z" fill="#EE4266"/>
<path d="M31.668 83.3962C31.3707 82.6469 30.776 81.523 31.5194 80.8486C32.4114 80.0244 32.6344 81.8976 31.668 81.523C30.999 81.2233 30.4786 82.1973 31.0733 82.4971C31.8911 82.8717 32.8574 82.6469 33.3035 81.8227C33.6751 81.0734 33.3035 80.0244 32.5601 79.7247C31.668 79.2751 30.7017 79.8745 30.2556 80.6238C29.6609 81.7478 30.1813 82.9466 30.6273 83.9957C30.999 84.5951 31.9654 84.0706 31.668 83.3962Z" fill="white"/>
<path d="M31.6676 82.4972C31.9649 83.0217 32.2623 83.5462 32.5596 84.0707C32.9313 84.6701 33.8977 84.1456 33.526 83.4712C33.2287 82.9467 32.9313 82.4222 32.634 81.8977C32.2623 81.2983 31.2959 81.8228 31.6676 82.4972Z" fill="white"/>
<path d="M36.7968 79.8745C36.0534 79.8745 35.2357 79.8745 34.4923 79.8745C34.195 79.8745 33.972 80.0993 33.8976 80.474C33.8233 81.5979 33.8233 82.8717 34.641 83.6959C35.3101 84.3703 36.2764 84.5951 37.0942 84.1455C37.7632 83.7709 37.1685 82.7968 36.4995 83.1714C35.9791 83.3962 35.4587 83.0216 35.2357 82.572C34.9384 81.8976 35.0127 81.1483 35.087 80.399C34.864 80.6238 34.7154 80.7737 34.4923 80.9985C35.2357 80.9985 36.0534 80.9985 36.7968 80.9985C37.4658 80.9985 37.4658 79.8745 36.7968 79.8745Z" fill="white"/>
<path d="M35.9792 81.5981C35.6075 81.5981 35.2359 81.5981 34.8642 81.5981C34.1208 81.5981 34.1208 82.7221 34.8642 82.7221C35.2359 82.7221 35.6075 82.7221 35.9792 82.7221C36.7226 82.7221 36.7226 81.5981 35.9792 81.5981Z" fill="white"/>
<path d="M39.9936 80.0996C37.6891 79.8748 36.574 82.9469 38.5068 84.2207C39.3245 84.7452 40.5139 84.7452 41.183 83.9959C41.852 83.2466 41.4803 82.0478 40.5139 81.748C40.4396 82.1227 40.4396 82.4973 40.3653 82.872C40.5883 82.872 40.7369 82.872 40.96 82.872C41.7033 82.9469 41.7033 81.748 40.96 81.748C40.7369 81.748 40.5883 81.748 40.3653 81.748C39.6962 81.748 39.6219 82.6472 40.2166 82.872C40.8113 83.0218 39.9936 83.5464 39.6219 83.5464C39.2502 83.4714 38.8785 83.1717 38.6555 82.7971C38.2838 81.8979 39.1015 81.1486 39.9192 81.2235C40.7369 81.2985 40.7369 80.1745 39.9936 80.0996Z" fill="white"/>
<path d="M41.9274 80.3242C42.0017 81.2983 42.0017 82.2723 42.0761 83.2464C42.1504 83.9957 43.2654 83.9957 43.1911 83.2464C43.1168 82.2723 43.1168 81.2983 43.0424 80.3242C42.9681 79.5749 41.853 79.5749 41.9274 80.3242Z" fill="white"/>
<path d="M46.3132 79.5746C45.7185 79.3498 45.0494 79.2749 44.5291 79.5746C44.083 79.8744 43.86 80.3989 43.9344 80.9234C44.083 81.5228 44.6034 81.7476 45.0494 82.0473C45.4211 82.2721 45.7928 82.5718 45.1238 82.7966C44.8264 82.9465 44.3804 82.8715 44.0087 82.7966C43.2653 82.7217 43.2653 83.8456 44.0087 83.9205C45.0494 83.9955 46.5362 83.7707 46.6105 82.422C46.6105 81.8975 46.3132 81.4479 45.8671 81.2231C45.7185 81.1482 45.0494 80.9234 44.9751 80.7735C44.8264 80.3989 45.7185 80.6236 45.9415 80.6986C46.6848 80.9234 46.9822 79.7994 46.3132 79.5746Z" fill="white"/>
<path d="M47.6513 80.7736C48.469 80.7736 49.361 80.6986 50.1788 80.6986C50.9221 80.6986 50.9221 79.5747 50.1788 79.5747C49.361 79.5747 48.469 79.6496 47.6513 79.6496C46.9079 79.6496 46.9079 80.7736 47.6513 80.7736Z" fill="white"/>
<path d="M48.32 80.474C48.3943 81.3732 48.4686 82.3473 48.4686 83.2464C48.543 83.9957 49.658 83.9957 49.5837 83.2464C49.5094 82.3473 49.435 81.3732 49.435 80.474C49.3607 79.7997 48.2456 79.7997 48.32 80.474Z" fill="white"/>
<path d="M52.4072 83.9955C52.5559 83.471 52.4815 83.0214 52.4815 82.422C52.4072 81.8975 52.2585 81.2981 52.4815 80.7736C52.7789 80.249 53.5222 80.1741 53.6709 80.8485C53.8939 81.5978 53.0762 82.0473 52.4815 81.7476C51.8125 81.4479 51.2921 82.422 51.8868 82.7217C52.7789 83.1713 53.9683 83.0214 54.4886 82.1223C55.009 81.2981 54.786 80.0992 53.9683 79.5747C53.2249 79.0502 52.1098 79.2 51.5895 79.9493C50.6974 81.0733 51.5151 82.422 51.2178 83.6958C51.1435 84.4451 52.2585 84.7448 52.4072 83.9955Z" fill="white"/>
<path d="M52.8533 82.7221C53.225 83.2466 53.5223 83.6962 53.894 84.2207C54.3401 84.8201 55.3064 84.2207 54.8604 83.6212C54.4887 83.0967 54.1914 82.6471 53.8197 82.1226C53.448 81.5981 52.4073 82.1226 52.8533 82.7221Z" fill="white"/>
<path d="M57.983 79.5001C57.1653 79.2004 56.3476 79.2004 55.6786 79.7998C55.0096 80.4742 54.9352 81.4483 55.0095 82.3474C55.0839 83.2466 55.2326 84.1457 56.1246 84.5953C57.091 85.1198 58.1317 84.6702 59.0238 84.2206C59.6928 83.9209 59.0981 82.9468 58.4291 83.2466C57.983 83.4713 57.4627 83.7711 56.9423 83.6961C56.2733 83.5463 56.1989 82.9468 56.1246 82.3474C56.0503 81.5981 56.1989 79.9497 57.4627 80.4742C58.1317 80.699 58.6521 79.7249 57.983 79.5001Z" fill="white"/>
<path d="M57.3883 81.6729C56.8679 81.6729 56.2732 81.6729 55.7528 81.6729C55.0095 81.6729 55.0095 82.7968 55.7528 82.7968C56.2732 82.7968 56.8679 82.7968 57.3883 82.7968C58.0573 82.7968 58.0573 81.6729 57.3883 81.6729Z" fill="white"/>
<path d="M61.4781 79.8748C60.809 79.2754 59.8426 79.5751 59.4709 80.3994C59.2479 80.9239 59.3223 81.4484 59.3966 81.9729C59.5453 82.7971 59.694 83.6213 59.8426 84.4455C59.917 84.6703 60.14 84.8951 60.363 84.8951C60.9577 84.8951 61.6267 84.8951 62.2214 84.8202C62.9648 84.8202 62.9648 83.6962 62.2214 83.6962C61.6267 83.6962 60.9577 83.6962 60.363 83.7712C60.5117 83.921 60.7347 84.0709 60.8834 84.2207C60.809 83.6213 60.6603 83.0968 60.586 82.4974C60.5117 82.2726 60.5117 81.9729 60.4373 81.7481C60.4373 81.6731 60.363 80.5492 60.6603 80.774C61.255 81.1486 62.0728 80.3244 61.4781 79.8748Z" fill="white"/>
<path d="M61.4777 81.5229C61.0317 81.5229 60.5114 81.5229 60.0653 81.5229C59.322 81.5229 59.322 82.6469 60.0653 82.6469C60.5114 82.6469 61.0317 82.6469 61.4777 82.6469C62.2211 82.7218 62.2211 81.5229 61.4777 81.5229Z" fill="white"/>
<path d="M64.5256 84.0706C64.4512 83.0966 64.3026 82.1974 64.3026 81.2233C64.2282 80.6239 64.8229 79.7247 65.3433 80.549C65.715 81.1484 65.1203 81.8228 64.4512 81.7478C63.7079 81.598 63.4105 82.7219 64.1539 82.8718C65.1203 83.0216 66.0867 82.647 66.4584 81.7478C66.83 80.8487 66.4584 79.7997 65.6406 79.3501C64.8229 78.9005 63.7822 79.2002 63.3362 80.0994C63.1132 80.6239 63.1875 81.2233 63.2618 81.7478C63.3362 82.4971 63.4105 83.3214 63.4849 84.0706C63.4849 84.745 64.5999 84.745 64.5256 84.0706Z" fill="white"/>
<path d="M64.8219 82.7969C65.1192 83.3215 65.4909 83.846 65.7883 84.2955C66.16 84.895 67.1263 84.3705 66.7547 83.6961C66.4573 83.1716 66.0856 82.6471 65.7883 82.1975C65.4166 81.5981 64.4502 82.1975 64.8219 82.7969Z" fill="white"/>
<path d="M82.9614 99.9556C79.6906 93.4367 76.4941 86.9928 73.2232 80.4739C71.5878 77.177 69.1346 73.3556 65.9381 73.8801C64.0054 74.2548 62.593 76.2779 62.0726 78.5258C61.5522 80.7736 61.8496 83.1714 62.2956 85.4942C64.154 95.0102 69.1346 103.627 75.825 109.172" fill="#FAD779"/>
<path d="M32.4864 26.5249C33.0068 27.3491 33.6758 28.0984 34.7165 27.5739C35.5342 27.1244 35.7572 26.2252 35.4599 25.401C35.1625 25.5508 34.8652 25.7756 34.4935 25.9255C34.8652 26.3001 35.2369 26.6748 35.5342 27.1244C35.7572 27.3491 36.1289 27.3491 36.3519 27.1244C36.798 26.7497 37.244 26.3751 37.69 25.9255C37.3927 25.7756 37.021 25.6258 36.7236 25.5508C36.7236 26.6748 37.244 27.5739 38.2104 28.1734C38.5077 28.3982 39.1024 28.0984 39.0281 27.7238C39.1768 27.3491 39.3254 27.0494 39.4741 26.6748C39.2511 26.5999 38.9537 26.5249 38.7307 26.45C38.9537 26.8246 39.1768 27.2742 39.3998 27.6489C39.7715 28.3232 40.7378 27.7238 40.3662 27.0494C40.1431 26.6748 39.9201 26.2252 39.6971 25.8506C39.5484 25.5508 39.1768 25.4759 38.9537 25.6258C38.2104 26.0753 37.8387 26.7497 37.913 27.6489C38.2104 27.499 38.5077 27.3491 38.7307 27.1993C38.0617 26.8246 37.7643 26.3001 37.7643 25.5508C37.7643 25.0263 37.1696 24.8765 36.798 25.1762C36.3519 25.5508 35.9059 25.9255 35.4599 26.3751C35.7572 26.3751 35.9803 26.3751 36.2776 26.3751C35.9059 26.0004 35.5342 25.6258 35.2369 25.1762C34.8652 24.8015 34.1218 25.1762 34.2705 25.7007C33.9731 25.9255 33.7501 26.0753 33.4528 26.3001C33.3784 26.2252 33.3041 26.0753 33.1554 26.0004C33.0068 25.9255 32.8581 25.7007 32.6351 25.7007C32.4121 25.6258 32.1147 25.6258 31.8174 25.7007C31.2227 26.0004 31.074 26.5249 31.3713 27.0494C31.8917 27.7238 32.8581 27.1244 32.4864 26.5249Z" fill="black"/>
<path d="M62.1453 16.9339C61.5506 18.1327 62.8887 19.3316 64.0781 18.6572C65.2675 17.9079 64.8215 16.1846 63.6321 15.735C62.517 15.2854 61.3276 16.1846 61.5506 17.3834C61.7736 18.6572 63.5577 18.9569 64.1524 17.833C64.7471 16.7091 63.6321 15.3603 62.4427 15.8099C61.402 16.1846 61.3276 17.6831 62.2197 18.2826C63.186 18.9569 64.4498 17.9829 64.3011 16.8589C64.1524 15.735 62.6657 15.4353 61.9223 16.1846C60.9559 17.2336 62.2197 18.882 63.4834 18.3575C64.6728 17.9079 64.4498 16.1096 63.3347 15.735C62.6657 15.5102 62.3683 16.5592 63.0374 16.784C63.1861 16.8589 63.2604 17.2336 63.0374 17.3085C62.8144 17.3834 62.4427 16.9339 62.8887 16.8589C63.186 16.784 63.2604 17.1586 63.0374 17.3085C62.8144 17.4584 62.5914 17.0837 62.74 16.8589C62.963 16.5592 63.4091 16.9339 63.1861 17.2336C62.963 17.5333 62.517 17.1586 62.74 16.784C63.0374 16.4093 63.6321 16.784 63.7064 17.1586C63.7064 17.3834 63.6321 17.6082 63.4091 17.6831C63.2604 17.6831 63.0374 17.6082 63.1117 17.4584C63.4091 16.8589 62.4427 16.3344 62.1453 16.9339Z" fill="#EE4266"/>
<path d="M65.4906 18.2077C64.4499 19.7063 62.4427 19.7063 61.2534 18.3576C60.8817 17.908 60.2126 18.3576 60.287 18.8821C60.6586 20.3807 61.7737 21.6545 63.3348 21.8043C65.0446 21.9542 65.9366 20.7553 66.457 19.2567C66.6056 18.8072 66.0109 18.3576 65.6393 18.6573C64.5985 19.4815 63.4091 19.7812 62.0711 19.6314C61.9967 20.006 61.9967 20.3807 61.9224 20.7553C62.8888 20.7553 63.9295 20.7553 64.8959 20.8303C64.8215 20.4556 64.8215 20.081 64.7472 19.7063C64.3755 19.7812 63.9295 19.8562 63.5578 20.006C62.8888 20.081 63.1861 21.13 63.9295 20.9801C64.3012 20.9052 64.7472 20.8303 65.1189 20.6804C65.7136 20.5305 65.5649 19.5565 64.9702 19.5565C64.0038 19.5565 62.9631 19.5565 61.9967 19.4815C61.402 19.4815 61.179 20.4556 61.848 20.6055C63.4835 20.8303 64.9702 20.5305 66.234 19.5565C65.9366 19.3317 65.7136 19.1069 65.4162 18.957C65.0446 20.081 64.4499 20.9801 63.1861 20.6804C62.2197 20.4556 61.625 19.5565 61.402 18.5824C61.1047 18.7322 60.8073 18.957 60.4356 19.1069C62.1454 21.055 64.9702 20.8303 66.3826 18.7322C66.8287 18.2077 65.8623 17.6083 65.4906 18.2077Z" fill="#EE4266"/>
<path d="M58.7274 24.8763C58.653 24.8014 58.653 24.7264 58.5787 24.6515C58.5787 24.8763 58.5043 25.1011 58.5043 25.3259C57.761 26.1501 59.3964 26.6746 59.9168 26.5248C60.9575 26.225 61.1805 25.176 61.2548 24.2019C60.8831 24.2019 60.5115 24.2019 60.1398 24.2019C60.2141 26.3 62.8903 26.6746 63.3363 24.5766C62.9646 24.5017 62.5929 24.5017 62.2212 24.4267C62.4442 26.8245 64.9717 25.7005 66.3841 25.176C66.1611 25.0262 65.9381 24.8014 65.7151 24.6515C65.9381 26.5248 68.3912 26.3749 68.1682 24.5017C67.8709 24.6515 67.4992 24.8014 67.2018 24.8763C67.4248 25.1011 67.6478 25.251 67.7965 25.4757C68.3169 26.0002 69.1346 25.176 68.6142 24.6515C68.3912 24.4267 68.1682 24.2769 68.0195 24.0521C67.7222 23.7524 66.9788 23.9022 67.0531 24.4267C66.9788 24.5017 66.9045 24.5766 66.8301 24.5766C66.7558 24.2769 66.5328 23.9022 66.1611 24.0521C65.8638 24.127 63.485 25.176 63.4106 24.3518C63.3363 23.7524 62.4442 23.5276 62.2956 24.2019C61.9239 24.2019 61.6265 24.127 61.2548 24.127C61.2548 23.3777 60.2141 23.4527 60.1398 24.127C59.9911 25.7755 58.876 24.2769 58.43 24.127C58.2813 24.0521 57.984 24.127 57.9096 24.2769C57.8353 24.3518 57.761 24.4267 57.6866 24.5017C57.538 24.6515 57.4636 24.9512 57.6123 25.176C57.6866 25.251 57.6866 25.3259 57.761 25.4008C58.1327 26.0752 59.099 25.5507 58.7274 24.8763Z" fill="#EE4266"/>
<path d="M15.6858 55.223C17.3212 59.0444 17.1725 65.4884 14.5707 67.2117C12.4149 68.6354 9.51574 64.8889 9.44141 60.9926C9.44141 56.7966 14.1247 52.3757 15.6858 55.223Z" fill="#FAD779"/>
<path d="M92.4754 33.8682C94.8542 46.756 99.4631 60.9176 97.9764 74.4799C97.1586 81.8229 95.2259 88.1919 93.2188 94.1863L88.3125 109.022V79.2753" fill="#FAD779"/>
</g>
<defs>
<clipPath id="clip0">
<rect width="115" height="159" fill="white"/>
</clipPath>
</defs>
</svg>
