<svg width="96" height="163" viewBox="0 0 96 163" fill="none" xmlns="http://www.w3.org/2000/svg">
<path d="M13.099 107.282C8.78881 120.244 5.85474 134.403 3.71143 147.334C9.3243 149.125 14.9513 150.858 20.5641 152.648C22.8089 153.315 27.2101 154.504 29.6187 153.73C32.0272 152.955 35.1787 150.387 35.3296 147.215C36.4836 149.839 37.4928 152.551 36.6003 155.728C38.6242 156.033 40.1812 154.189 41.7063 151.967C43.2314 149.745 43.9743 147.95 44.8705 145.267C45.9454 148.983 46.2823 153.198 45.8634 157.477C50.5223 158.111 52.4278 158.141 57.1449 158.789L57.5805 156.735C60.2048 145.895 62.8757 131.549 66.6171 118.388" fill="#FAD779"/>
<path d="M73.0518 90.0221C73.8308 85.2749 72.1792 78.3351 69.4215 75.1996C63.657 68.6832 62.5882 61.8845 64.4592 53.3913C66.3302 44.8981 70.179 30.5288 72.4579 22.1343C75.1479 12.297 74.916 10.4516 65.2995 8.12357C55.683 5.79554 55.0959 8.98508 52.5255 17.309C49.9692 25.5746 47.5634 40.3549 45.3427 48.7634C43.122 57.172 39.0761 62.6708 30.9554 65.8875C27.069 67.4145 21.6391 74.5526 20.9477 77.4084C20.4821 79.3317 19.2405 84.4605 19.2405 84.4605L71.3446 97.0742C71.3446 97.0742 72.2728 94.7693 73.0518 90.0221Z" fill="black"/>
<path d="M17.551 91.9487C14.9283 91.3138 14.9915 90.0334 14.8111 89.2494C14.6307 88.4653 14.77 87.6353 14.8951 86.8635C15.1755 85.4506 15.4699 83.9795 16.319 82.766C17.168 81.5525 18.66 80.7414 20.0729 81.0217C20.0729 81.0217 52.0237 88.4481 68.634 92.4692C70.2076 92.8502 71.7812 93.2311 73.0972 94.1667C74.4131 95.1022 75.5297 96.6065 74.6408 100.278C73.7802 103.833 72.1471 105.227 69.5385 104.534" fill="#B3B3B3"/>
<path d="M72.6443 103.682C72.6063 106.388 72.0972 110.275 69.6923 111.543C68.4175 112.222 66.9623 112.116 65.5071 112.011C54.5188 111.017 24.3822 105.017 14.5988 99.8101C12.6417 98.7194 13.0692 93.6403 15.5139 89.9133" fill="#B3B3B3"/>
<path d="M69.4756 111.676C71.1701 114.616 70.0941 118.551 67.6893 119.819C66.4144 120.498 64.9592 120.392 63.504 120.287C52.5158 119.293 22.3791 113.293 12.5957 108.086C10.6386 106.995 11.1686 102.003 14.6765 98.4713" fill="#B3B3B3"/>
</svg>
