<svg width="190" height="104" viewBox="0 0 190 104" fill="none" xmlns="http://www.w3.org/2000/svg">
<path d="M163.017 41.6688C161.026 39.208 159.855 36.1726 159.078 33.0821C158.58 31.0332 158.187 28.804 158.877 26.7921C159.647 24.5051 161.697 22.7888 163.901 21.8428C166.153 20.8841 168.67 19.956 171.732 21.064C169.383 20.3232 167.231 19.9357 164.772 19.9347" fill="#6A32EF"/>
<path d="M18.2122 75.5462C18.68 78.821 18.3982 83.3117 18.866 86.5865C19.0115 87.5117 19.1824 88.5317 19.9333 89.0409C20.6238 89.5156 21.5697 89.4145 22.4424 89.2314C77.9235 79.9476 187.816 57.9621 187.816 57.9621C183.507 47.0386 186.142 32.9854 177.652 24.8062C170.342 17.7824 158.686 18.6218 148.562 20.0152C104.774 26.115 61.1878 33.7339 17.8646 42.9063C14.0871 43.7155 10.1312 44.6232 7.42485 47.3276C2.28312 52.41 4.4907 60.6488 6.53414 67.5106C7.22897 69.9126 9.98719 72.3707 12.2215 73.4467C15.5919 75.1318 15.8637 74.044 19.7905 73.6008C32.4815 72.2302 45.5033 71.3292 57.8175 67.9789" fill="white"/>
<path d="M169.933 46.2603C170.834 46.3742 171.698 45.5845 171.972 44.6989C172.247 43.8132 172.041 42.8535 171.848 41.941C171.629 40.9339 171.302 39.905 170.619 39.0732C169.435 37.7155 167.465 37.4316 165.688 37.2987C165.688 37.2987 161.268 37.6204 159.389 37.8701L161.19 44.5937" fill="#B3B3B3"/>
<path d="M168.89 46.3878C104.694 51.8153 72.8774 63.0303 25.2107 75.2951C20.0379 76.6304 5.5113 76.3106 3.97772 60.0759C2.75 46.7027 8.05802 43.961 17.61 41.9597C27.1619 39.9585 132.288 20.8235 148.367 19.1031C156.138 18.2897 163.73 17.5749 172.357 20.3382C169.908 20.1824 167.46 20.0265 165.093 20.5591C162.727 21.0917 160.432 22.4677 159.325 24.6421C158.591 26.1074 158.484 27.8108 158.508 29.4284C158.717 36.3249 162.352 43.7752 168.99 45.8029C169.833 46.0844 170.362 46.1458 170.661 46.1163C170.04 46.2827 169.575 46.4581 168.89 46.3878Z" fill="black"/>
<path d="M100.2 56.0643C96.8916 56.1388 94.2641 53.595 92.0695 51.1381C89.3628 48.1079 86.7263 44.9574 85.1126 41.2284C83.5467 37.4866 83.1342 33.0805 84.915 29.4062L67.4968 32.2464C65.2553 38.0234 65.8214 44.7228 68.981 50.0168C72.1406 55.3108 79.3137 59.5294 83.9944 59.7977C87.9638 67.1583 87.8164 71.004 88.9478 76.1817C89.3597 78.1013 89.2938 80.1489 89.0944 82.0801C88.8949 84.0112 88.3691 87.4 86.693 88.4074C90.5205 88.549 93.4606 84.6148 94.6426 80.9994C95.6779 83.7162 97.332 85.3029 96.3165 88.011C99.2154 86.9805 102.067 79.4668 102.406 78.0565C104.063 70.8629 102.723 64.5231 100.581 57.4848L100.2 56.0643Z" fill="#FAD779"/>
<circle cx="160.5" cy="69.5" r="11.5" fill="#EE4266"/>
<path d="M160.787 63.75V75.825" stroke="white" stroke-width="2" stroke-linecap="round"/>
<path d="M166.824 69.7871L154.749 69.7871" stroke="white" stroke-width="2" stroke-linecap="round"/>
</svg>
