<svg width="67" height="51" viewBox="0 0 67 51" fill="none" xmlns="http://www.w3.org/2000/svg">
<path d="M65.1553 50.4467C65.1553 37.3508 78.26 0 34.147 0C-10.7965 0 1.5699 45.1899 1.5699 51L65.1553 50.4467Z" fill="#F0EDF6"/>
<path d="M37.6533 40.0248C37.4687 31.6324 37.561 22.41 37.8379 14.0176C34.977 14.5709 32.0238 14.5709 29.163 14.1098C29.0707 22.3178 29.0707 30.5257 29.163 38.8259C29.163 39.1026 29.163 39.3792 29.3475 39.5637C29.5321 39.7481 29.809 39.7481 29.9935 39.7481C32.0238 39.8404 34.977 39.9326 37.0073 39.9326" fill="#EE4266"/>
<path d="M48.1738 30.3419C48.1738 28.4052 48.3584 25.0851 48.3584 23.1484C38.3914 23.3329 28.4245 23.4251 18.4575 23.6096C18.4575 25.1774 18.4575 26.8374 18.3652 28.4052C18.3652 28.6819 18.3652 29.0508 18.5498 29.3275C18.8267 29.6964 19.3804 29.7886 19.9341 29.7886C29.1628 29.973 39.4066 30.1575 48.6352 30.2497" fill="#EE4266"/>
</svg>
