<svg width="34" height="33" viewBox="0 0 34 33" fill="none" xmlns="http://www.w3.org/2000/svg">
<g clip-path="url(#clip0)">
<path d="M28.6407 31.4264C24.508 30.0331 20.4671 28.1753 16.6559 25.9924C16.6559 25.9924 8.71188 30.8691 5.63531 32.9126C5.63531 32.9126 7.7935 25.3886 9.63026 21.3015C7.0588 18.2362 3.84447 16.75 0.0332031 13.8704L0.216879 13.9633C4.07407 14.0098 7.93126 14.1027 11.8344 14.1491C11.8344 14.1491 14.9569 5.09246 16.5181 0.81958C18.4467 4.95313 20.2834 9.17957 21.9365 13.4524L22.258 13.5453C26.0692 13.4524 29.8805 13.3596 33.6918 13.2667C30.9826 16.2391 27.9519 18.7935 24.6457 20.8835V20.7907C25.9774 24.3669 27.309 27.8966 28.5948 31.4729L28.6407 31.4264Z" fill="#FFE66D"/>
</g>
<defs>
<clipPath id="clip0">
<rect width="33.6586" height="32.0931" fill="white" transform="translate(0.0332031 0.81958)"/>
</clipPath>
</defs>
</svg>
