<svg width="35" height="36" viewBox="0 0 35 36" fill="none" xmlns="http://www.w3.org/2000/svg">
<path d="M30.2836 0.72998H4.71635C2.11164 0.72998 0 2.84151 0 5.4463V31.0135C0 33.6183 2.11155 35.7298 4.71635 35.7298H17.326L17.3475 23.2228H14.0981C13.6758 23.2228 13.3331 22.8813 13.3315 22.459L13.3159 18.4275C13.3143 18.0029 13.658 17.6579 14.0826 17.6579H17.3261V13.7624C17.3261 9.2417 20.087 6.78016 24.1198 6.78016H27.429C27.8524 6.78016 28.1957 7.1234 28.1957 7.54688V10.9463C28.1957 11.3696 27.8526 11.7128 27.4294 11.713L25.3986 11.714C23.2055 11.714 22.7808 12.7561 22.7808 14.2855V17.658H27.5999C28.0591 17.658 28.4153 18.0589 28.3612 18.5149L27.8834 22.5465C27.8377 22.9323 27.5105 23.2229 27.1221 23.2229H22.8023L22.7808 35.73H30.2837C32.8885 35.73 35 33.6184 35 31.0137V5.4463C34.9999 2.84151 32.8884 0.72998 30.2836 0.72998Z" fill="white"/>
</svg>
