<svg width="22" height="33" viewBox="0 0 22 33" fill="none" xmlns="http://www.w3.org/2000/svg">
<path d="M14.71 26.7351C14.2618 22.6764 17.0199 19.0611 19.1575 15.5139C21.2951 11.9668 22.7086 7.19179 19.985 4.12216C19.123 3.16716 17.9508 2.51912 16.7441 2.00752C13.2964 0.609127 9.2281 0.506805 5.88383 2.17805C2.53955 3.8493 0.160631 7.39643 0.333017 11.1141C0.470925 14.1155 2.19478 16.81 3.60834 19.4703C4.64265 21.4827 5.53906 24.791 5.4701 26.9739" fill="#FFE66D"/>
<path d="M11.0578 26.3603C11.0923 23.7682 10.5752 21.2784 9.81666 18.8227C9.19607 16.708 8.64444 14.4229 7.16192 12.7516C6.71372 12.24 5.9897 12.9904 6.43791 13.4679C7.88594 15.1391 8.4031 17.6289 9.02369 19.7095C9.64427 21.8923 10.058 24.1093 10.0235 26.3944C10.0235 27.0425 11.0578 27.0425 11.0578 26.3603Z" fill="white"/>
<path d="M9.81574 18.5158C10.1605 16.2647 11.643 14.5935 13.16 12.9904C13.6082 12.5129 12.8842 11.7967 12.436 12.2742C10.8156 14.0136 9.19515 15.8554 8.81591 18.2429C8.74695 18.8568 9.74679 19.1638 9.81574 18.5158Z" fill="white"/>
<path d="M16.229 26.2239C16.0221 26.0534 14.4017 25.7805 14.1604 25.7464C11.1264 25.4395 9.23015 25.4054 6.16169 25.917C5.64453 26.0193 4.12754 26.2921 3.85172 27.0425C3.71381 27.4177 4.02411 27.8611 4.40335 28.0657C4.7826 28.2704 6.57541 28.2704 6.98914 28.3045C10.1955 28.4068 12.0228 28.3045 15.2292 27.9975C15.505 27.9634 15.7463 27.9634 15.9877 27.7929C16.5393 27.4177 16.6427 26.565 16.229 26.2239Z" fill="black"/>
<path d="M4.05752 29.7029C4.26438 29.8735 5.85033 30.2145 6.12615 30.1804C9.29804 29.9758 10.6771 29.8735 14.1248 30.0781C14.642 30.1122 16.159 29.7029 16.4348 28.9867C16.5727 28.6115 16.2624 28.1681 15.8832 27.9635C15.5039 27.7588 13.7111 27.7247 13.2974 27.7247C10.091 27.5883 8.26373 27.6906 5.05736 27.9635C4.78154 27.9976 4.5402 27.9976 4.29886 28.134C3.74723 28.5092 3.6438 29.3619 4.05752 29.7029Z" fill="black"/>
<path d="M4.05797 30.4873C4.23036 30.2827 5.81631 29.9416 6.09212 29.9075C9.09163 29.43 10.9534 29.2936 14.0563 29.6006C14.5735 29.6688 16.0905 29.8734 16.4352 30.5897C16.6076 30.9648 16.2973 31.4082 15.9526 31.647C15.6078 31.8516 13.815 31.988 13.4013 32.0222C10.2294 32.3291 8.40209 32.3291 5.19572 32.1927C4.9199 32.1927 4.67856 32.1586 4.43722 32.0563C3.81663 31.7152 3.67873 30.8625 4.05797 30.4873Z" fill="black"/>
</svg>
