<svg width="191" height="67" viewBox="0 0 191 67" fill="none" xmlns="http://www.w3.org/2000/svg">
<path d="M78.4008 57.7C78.4008 57.6 78.3008 57.4 78.3008 57.2C78.3008 57 78.4008 56.7 78.9008 56.7C79.1008 56.7 79.4008 56.7999 79.6008 57.2999L81.1008 62.2L82.6008 57.5999C82.7008 57.0999 82.8008 56.7999 83.3008 56.7999C83.8008 56.7999 83.9008 56.9999 84.0008 57.5999L85.5008 62.2L87.0008 57.2999C87.1008 56.7999 87.3008 56.7 87.7008 56.7C88.0008 56.7 88.3008 57 88.3008 57.2C88.3008 57.3 88.3008 57.4 88.2008 57.7L86.0008 63.2999C85.9008 63.7999 85.7008 63.9 85.3008 63.9C85.0008 63.9 84.8008 63.7999 84.6008 63.2999L83.1008 58.5999L81.6008 63.2999C81.5008 63.7999 81.3008 63.9 80.9008 63.9C80.6008 63.9 80.4008 63.7999 80.2008 63.2999L78.4008 57.7Z" fill="white"/>
<path d="M89.6016 60.7999C89.6016 61.9999 90.4016 62.9999 91.7016 62.9999C93.2016 62.9999 93.7016 62.0999 94.1016 62.0999C94.3016 62.0999 94.6016 62.2999 94.6016 62.5999C94.6016 63.1999 93.1016 64.0999 91.8016 64.0999C89.5016 64.0999 88.6016 62.3999 88.6016 60.4999C88.6016 58.4999 89.8016 56.8999 91.7016 56.8999C93.7016 56.8999 94.7016 58.5999 94.7016 60.3999C94.7016 60.8999 94.6016 60.9999 94.0016 60.9999H89.6016V60.7999ZM93.5016 59.8999C93.5016 58.8999 92.9016 57.6999 91.6016 57.6999C90.1016 57.6999 89.6016 58.8999 89.6016 59.8999H93.5016Z" fill="white"/>
<path d="M103.701 63C103.401 63.7 102.801 63.9 101.701 63.9C99.7012 63.9 98.7012 62.2 98.7012 60.3C98.7012 58.4 99.9012 56.7 101.701 56.7C102.601 56.7 103.301 57.2 103.501 57.6V54.1C103.501 53.8 103.701 53.5 104.101 53.5C104.401 53.5 104.701 53.7 104.701 54.1V63.1C104.701 63.4 104.501 63.7 104.101 63.7C103.801 63.7 103.501 63.5 103.501 63.1V63H103.701ZM101.801 57.8C100.401 57.8 99.8012 59.2 99.8012 60.3C99.8012 61.4 100.301 62.8 101.801 62.8C103.201 62.8 103.801 61.4 103.801 60.3C103.801 59.2 103.301 57.8 101.801 57.8Z" fill="white"/>
<path d="M107.201 60.7999C107.201 61.9999 108.001 62.9999 109.301 62.9999C110.801 62.9999 111.301 62.0999 111.701 62.0999C111.901 62.0999 112.201 62.2999 112.201 62.5999C112.201 63.1999 110.701 64.0999 109.401 64.0999C107.101 64.0999 106.201 62.3999 106.201 60.4999C106.201 58.4999 107.401 56.8999 109.301 56.8999C111.301 56.8999 112.301 58.5999 112.301 60.3999C112.301 60.8999 112.201 60.9999 111.601 60.9999H107.201V60.7999ZM111.101 59.8999C111.101 58.8999 110.501 57.6999 109.301 57.6999C107.801 57.6999 107.301 58.8999 107.301 59.8999H111.101Z" fill="white"/>
<path d="M112.702 57.7999C112.602 57.5999 112.602 57.4999 112.602 57.2999C112.602 56.9999 112.802 56.7 113.202 56.7C113.502 56.7 113.702 56.9 113.802 57.2L115.402 62.0999L117.002 57.2C117.102 57 117.202 56.7 117.602 56.7C117.802 56.7 118.202 56.8999 118.202 57.2999C118.202 57.3999 118.202 57.4999 118.102 57.7999L116.002 63.5C115.902 63.8 115.802 64 115.402 64C115.102 64 114.902 63.9 114.802 63.5L112.702 57.7999Z" fill="white"/>
<path d="M119.801 60.7999C119.801 61.9999 120.601 62.9999 121.901 62.9999C123.401 62.9999 123.901 62.0999 124.301 62.0999C124.501 62.0999 124.801 62.2999 124.801 62.5999C124.801 63.1999 123.301 64.0999 122.001 64.0999C119.701 64.0999 118.801 62.3999 118.801 60.4999C118.801 58.4999 120.001 56.8999 121.901 56.8999C123.901 56.8999 124.901 58.5999 124.901 60.3999C124.901 60.8999 124.801 60.9999 124.201 60.9999H119.801V60.7999ZM123.601 59.8999C123.601 58.8999 123.001 57.6999 121.801 57.6999C120.301 57.6999 119.801 58.8999 119.801 59.8999H123.601Z" fill="white"/>
<path d="M127.001 63.2999C127.001 63.5999 126.801 63.9 126.401 63.9C126.101 63.9 125.801 63.6999 125.801 63.2999V54.2999C125.801 53.9999 126.001 53.7 126.401 53.7C126.701 53.7 127.001 53.8999 127.001 54.2999V63.2999Z" fill="white"/>
<path d="M131.401 56.7C133.401 56.7 134.501 58.3999 134.501 60.2999C134.501 62.1999 133.301 63.9 131.401 63.9C129.501 63.9 128.301 62.1999 128.301 60.2999C128.301 58.3999 129.401 56.7 131.401 56.7ZM131.401 63C132.801 63 133.401 61.6 133.401 60.5C133.401 59.4 132.901 58 131.401 58C129.901 58 129.401 59.4 129.401 60.5C129.501 61.5 129.901 63 131.401 63Z" fill="white"/>
<path d="M135.801 57.2999C135.801 56.9999 136.001 56.7 136.401 56.7C136.801 56.7 137.001 56.8999 137.001 57.2999V57.5999C137.301 56.8999 137.901 56.7 138.801 56.7C140.801 56.7 141.801 58.3999 141.801 60.2999C141.801 62.1999 140.601 63.9 138.801 63.9C137.901 63.9 137.201 63.4 137.001 63V66.0999C137.001 66.3999 136.801 66.6999 136.401 66.6999C136.001 66.6999 135.801 66.4999 135.801 66.0999V57.2999ZM138.701 63C140.101 63 140.701 61.6 140.701 60.5C140.701 59.4 140.201 58 138.701 58C137.201 58 136.801 59.3 136.801 60.4C136.801 61.5 137.301 63 138.701 63Z" fill="white"/>
<path d="M146.5 57.2999C146.5 56.9999 146.7 56.7 147.1 56.7C147.5 56.7 147.7 56.8999 147.7 57.2999V57.5999C148 56.8999 148.6 56.7 149.6 56.7C151.6 56.7 152.6 58.3999 152.6 60.2999C152.6 62.1999 151.4 63.9 149.6 63.9C148.7 63.9 148 63.4 147.7 63V66.0999C147.7 66.3999 147.5 66.6999 147.1 66.6999C146.8 66.6999 146.5 66.4999 146.5 66.0999V57.2999ZM149.5 63C150.9 63 151.5 61.6 151.5 60.5C151.5 59.4 151 58 149.5 58C148 58 147.5 59.4 147.5 60.5C147.5 61.5 148 63 149.5 63Z" fill="white"/>
<path d="M154.602 60.7999C154.602 61.9999 155.402 62.9999 156.702 62.9999C158.202 62.9999 158.702 62.0999 159.102 62.0999C159.302 62.0999 159.602 62.2999 159.602 62.5999C159.602 63.1999 158.102 64.0999 156.802 64.0999C154.502 64.0999 153.602 62.3999 153.602 60.4999C153.602 58.4999 154.802 56.8999 156.702 56.8999C158.602 56.8999 159.702 58.5999 159.702 60.3999C159.702 60.8999 159.602 60.9999 159.002 60.9999H154.602V60.7999ZM158.402 59.8999C158.402 58.8999 157.802 57.6999 156.502 57.6999C155.002 57.6999 154.502 58.8999 154.502 59.8999H158.402Z" fill="white"/>
<path d="M163.5 56.7C165.5 56.7 166.6 58.3999 166.6 60.2999C166.6 62.1999 165.4 63.9 163.5 63.9C161.5 63.9 160.4 62.1999 160.4 60.2999C160.4 58.3999 161.5 56.7 163.5 56.7ZM163.5 63C164.9 63 165.5 61.6 165.5 60.5C165.5 59.4 165 58 163.5 58C162 58 161.5 59.4 161.5 60.5C161.5 61.5 162.1 63 163.5 63Z" fill="white"/>
<path d="M167.9 57.2999C167.9 56.9999 168.1 56.7 168.5 56.7C168.9 56.7 169.1 56.8999 169.1 57.2999V57.5999C169.4 56.8999 170 56.7 170.9 56.7C172.9 56.7 173.9 58.3999 173.9 60.2999C173.9 62.1999 172.7 63.9 170.9 63.9C170 63.9 169.3 63.4 169.1 63V66.0999C169.1 66.3999 168.9 66.6999 168.5 66.6999C168.1 66.6999 167.9 66.4999 167.9 66.0999V57.2999ZM170.9 63C172.3 63 172.9 61.6 172.9 60.5C172.9 59.4 172.4 58 170.9 58C169.5 58 168.9 59.4 168.9 60.5C168.9 61.5 169.5 63 170.9 63Z" fill="white"/>
<path d="M176.401 63.2999C176.401 63.5999 176.201 63.9 175.801 63.9C175.501 63.9 175.201 63.6999 175.201 63.2999V54.2999C175.201 53.9999 175.401 53.7 175.801 53.7C176.101 53.7 176.401 53.8999 176.401 54.2999V63.2999Z" fill="white"/>
<path d="M178.602 60.7999C178.602 61.9999 179.402 62.9999 180.702 62.9999C182.202 62.9999 182.702 62.0999 183.102 62.0999C183.302 62.0999 183.602 62.2999 183.602 62.5999C183.602 63.1999 182.102 64.0999 180.802 64.0999C178.502 64.0999 177.602 62.3999 177.602 60.4999C177.602 58.4999 178.802 56.8999 180.702 56.8999C182.702 56.8999 183.702 58.5999 183.702 60.3999C183.702 60.8999 183.602 60.9999 183.002 60.9999H178.602V60.7999ZM182.502 59.8999C182.502 58.8999 181.902 57.6999 180.602 57.6999C179.102 57.6999 178.602 58.8999 178.602 59.8999H182.502Z" fill="white"/>
<path d="M0.1 4.8001C0.1 2.0001 1.8 0.100098 4.3 0.100098C6.7 0.100098 8.5 2.0001 8.5 4.8001V16.2001H8.6C10.3 14.0001 13.6 13.3001 16.2 13.3001C22.8 13.3001 27.7 17.5001 27.7 24.6001V40.7001C27.7 43.5001 26 45.4001 23.5 45.4001C21.1 45.4001 19.3 43.5001 19.3 40.7001V26.0001C19.3 22.1001 16.9 20.2001 13.8 20.2001C10.4 20.2001 8.4 22.7001 8.4 26.0001V40.6001C8.4 43.4001 6.7 45.3001 4.2 45.3001C1.8 45.3001 0 43.4001 0 40.6001V4.8001H0.1Z" fill="white"/>
<path d="M62.5 29.5002C62.5 38.2002 56.5 45.6002 47.5 45.6002C38.5 45.6002 32.5 38.2002 32.5 29.5002C32.5 21.0002 38.7 13.2002 47.5 13.2002C56.3 13.3002 62.5 21.0002 62.5 29.5002ZM40.8 29.5002C40.8 33.5002 42.9 37.9002 47.4 37.9002C51.9 37.9002 54 33.5002 54 29.5002C54 25.5002 52 20.9002 47.4 20.9002C42.8 20.9002 40.8 25.5002 40.8 29.5002Z" fill="white"/>
<path d="M65.9996 20.9001C65.3996 19.2001 65.0996 18.2001 65.0996 16.9001C65.0996 15.0001 66.7996 13.5001 69.2996 13.5001C71.2996 13.5001 72.7996 14.8001 73.2996 16.8001L78.0996 32.8001H78.1996L83.0996 17.1001C83.6996 14.8001 84.8996 13.4001 87.3996 13.4001C89.7996 13.4001 90.9996 14.8001 91.6996 17.1001L96.5996 32.8001H96.6996L101.5 16.8001C102 14.8001 103.4 13.5001 105.5 13.5001C107.9 13.5001 109.7 15.0001 109.7 17.6001C109.7 18.5001 109.3 19.5001 108.9 20.7001L101.7 41.0001C100.8 43.4001 99.3996 45.3001 96.5996 45.3001C93.9996 45.3001 92.4996 43.8001 91.7996 41.4001L87.4996 27.9001H87.3996L83.0996 41.4001C82.2996 43.8001 80.7996 45.3001 78.2996 45.3001C75.5996 45.3001 74.0996 43.5001 73.1996 41.0001L65.9996 20.9001Z" fill="white"/>
<path d="M120.401 32.2002C121.001 36.3002 124.401 38.3002 128.301 38.3002C132.601 38.3002 135.601 34.9002 137.801 34.9002C139.601 34.9002 141.201 36.7002 141.201 38.5002C141.201 42.1002 133.701 45.6002 127.501 45.6002C118.101 45.6002 111.801 38.7002 111.801 29.5002C111.801 21.0002 118.001 13.2002 126.801 13.2002C135.901 13.2002 141.901 21.5002 141.901 28.5002C141.901 31.0002 140.801 32.2002 138.201 32.2002H120.401ZM133.601 26.7002C133.101 23.0002 130.801 20.3002 126.901 20.3002C123.201 20.3002 120.701 23.2002 120.301 26.7002H133.601Z" fill="white"/>
<path d="M163.701 23.0002C162.101 23.0002 158.901 20.6002 156.201 20.6002C154.701 20.6002 153.301 21.3002 153.301 22.9002C153.301 26.8002 167.901 26.2002 167.901 35.8002C167.901 41.4002 163.201 45.6002 156.001 45.6002C151.301 45.6002 144.301 42.9002 144.301 39.1002C144.301 37.8002 145.601 35.4002 147.901 35.4002C151.201 35.4002 152.601 38.3002 156.601 38.3002C159.201 38.3002 159.901 37.5002 159.901 35.9002C159.901 32.1002 145.301 32.6002 145.301 23.0002C145.301 17.2002 150.001 13.2002 156.701 13.2002C160.801 13.2002 167.201 15.1002 167.201 19.3002C167.201 21.2002 165.701 23.0002 163.701 23.0002Z" fill="white"/>
<path d="M175.299 21.3002H173.399C171.099 21.3002 169.699 19.9002 169.699 17.6002C169.699 15.5002 171.299 13.9002 173.399 13.9002H175.299V8.9002C175.299 6.1002 176.999 4.2002 179.499 4.2002C181.899 4.2002 183.699 6.1002 183.699 8.9002V13.9002H186.099C188.299 13.9002 190.099 14.9002 190.099 17.6002C190.099 20.2002 188.199 21.3002 186.099 21.3002H183.699V40.6002C183.699 43.4002 181.999 45.3002 179.499 45.3002C177.099 45.3002 175.299 43.4002 175.299 40.6002V21.3002Z" fill="white"/>
</svg>
