<svg width="36" height="36" viewBox="0 0 36 36" fill="none" xmlns="http://www.w3.org/2000/svg">
<path d="M25.1964 0.72998H11.0497C5.30044 0.72998 0.623047 5.40737 0.623047 11.1567V25.3033C0.623047 31.0526 5.30044 35.73 11.0497 35.73H25.1964C30.9457 35.73 35.623 31.0526 35.623 25.3033V11.1567C35.623 5.40737 30.9456 0.72998 25.1964 0.72998ZM32.102 25.3033C32.102 29.1172 29.0102 32.209 25.1964 32.209H11.0497C7.23586 32.209 4.14405 29.1172 4.14405 25.3033V11.1567C4.14405 7.34273 7.23586 4.25098 11.0497 4.25098H25.1964C29.0102 4.25098 32.102 7.34273 32.102 11.1567V25.3033Z" fill="white"/>
<path d="M18.1245 9.17773C13.1331 9.17773 9.07227 13.2386 9.07227 18.2299C9.07227 23.2213 13.1331 27.2822 18.1245 27.2822C23.1159 27.2822 27.1768 23.2213 27.1768 18.2299C27.1768 13.2385 23.1159 9.17773 18.1245 9.17773ZM18.1245 23.7612C15.0697 23.7612 12.5933 21.2848 12.5933 18.23C12.5933 15.1751 15.0697 12.6987 18.1245 12.6987C21.1794 12.6987 23.6558 15.1751 23.6558 18.23C23.6558 21.2848 21.1793 23.7612 18.1245 23.7612Z" fill="white"/>
<path d="M27.1945 11.4149C28.3925 11.4149 29.3636 10.4437 29.3636 9.24576C29.3636 8.0478 28.3925 7.07666 27.1945 7.07666C25.9965 7.07666 25.0254 8.0478 25.0254 9.24576C25.0254 10.4437 25.9965 11.4149 27.1945 11.4149Z" fill="white"/>
</svg>
