<svg width="76" height="43" viewBox="0 0 76 43" fill="none" xmlns="http://www.w3.org/2000/svg">
<path d="M17.0039 25.992C17.4212 29.7127 19.9771 43.2133 28.6882 42.9475C37.3992 42.6817 44.6498 41.6719 48.5097 36.3035C52.3697 30.9351 53.3086 25.4605 53.8303 22.0588C54.3519 18.657 35.6257 6.37891 35.6257 6.37891L22.7417 12.1193L17.0039 25.992Z" fill="white"/>
<path d="M53.831 22.0584C54.8742 18.7098 54.144 14.7766 52.4748 11.8001C50.8056 8.82355 48.3018 6.64432 45.6937 4.83715C40.8426 1.48857 35.2092 -0.690664 29.6278 0.212921C24.0465 1.11651 18.7781 5.74073 17.3698 12.2784C16.5352 16.1585 17.0046 25.9917 17.0046 25.9917C22.9511 24.8223 27.124 18.4972 30.6711 12.7036L30.9319 12.1721C31.923 17.381 35.9916 21.1017 40.321 22.3773C44.6505 23.7061 49.1364 23.0683 53.5702 22.4836L53.831 22.0584Z" fill="#FFE66D"/>
<path d="M18.6218 10.8973C16.2224 7.33612 12.5189 5.05058 8.71105 4.78482C6.3116 4.57221 3.75566 5.26319 2.08648 7.33612C0.156486 9.88742 0 13.6612 0 17.1161C5.16404 13.2891 11.4756 11.6414 17.4743 12.4919" fill="#FFE66D"/>
<path d="M51.7969 12.013C52.788 9.72746 54.7701 8.23921 56.7001 7.22932C59.2039 5.90052 61.9163 5.10324 64.6809 4.67802C66.1936 4.46541 67.8106 4.35911 69.219 5.05008C71.2011 6.05997 72.453 8.45181 73.3919 10.7905C74.3308 13.076 75.2176 15.4679 75.8957 17.9129C68.4365 14.5111 60.5079 11.0031 52.6315 12.8103" fill="#FFE66D"/>
</svg>
