<svg width="67" height="45" viewBox="0 0 67 45" fill="none" xmlns="http://www.w3.org/2000/svg">
<path d="M29.3843 32.042C29.5453 30.2657 31.1484 28.8381 32.8849 28.2654C34.6213 27.6927 36.4886 27.7913 38.3249 27.8597C46.3749 28.2162 54.4497 28.1136 62.488 27.5525L62.4499 24.5551C52.3568 24.714 42.2332 24.8733 32.1401 25.0322C31.3755 25.0419 30.6108 25.0516 29.9426 25.4272C29.4869 25.6777 29.1246 26.0494 28.7626 26.4517C27.5559 27.7825 26.473 29.234 25.5133 30.7452C21.2599 30.6463 5.35898 31.1544 2.60428 31.0365C-0.181012 30.9189 -0.143682 33.8552 1.72208 33.8315C3.55725 33.8081 25.5793 33.5282 25.5793 33.5282C26.5775 35.045 27.6973 36.4992 28.9378 37.8294C29.2793 38.2227 29.651 38.5851 30.1435 38.8236C30.8207 39.1515 31.6163 39.1719 32.3504 39.1626C42.4442 39.0649 52.5686 38.9668 62.6625 38.869L62.6236 35.8104C54.5736 35.4539 46.4988 35.5565 38.4605 36.1176C36.6265 36.2327 34.7623 36.3788 33.0119 35.8504C31.2615 35.322 29.6527 33.9047 29.4157 32.1028L29.4149 32.0416L29.3843 32.042Z" fill="url(#paint0_linear)"/>
<path d="M61.9352 41.8456C62.0382 35.5119 61.8044 29.1519 61.2345 22.8268C61.1656 22.2159 61.1566 21.5124 61.5488 21.0791C61.7602 20.8623 62.0339 20.7364 62.339 20.6714C63.2852 20.5064 64.242 21.1672 64.7116 22.0178C65.1813 22.8684 65.3161 23.8456 65.4203 24.8232C65.5245 25.8008 65.6287 26.7784 65.7023 27.7564C66.0223 31.2703 66.067 34.7877 66.1121 38.3357C66.123 39.1921 66.1339 40.0485 65.8688 40.8472C65.6036 41.646 65.0101 43.0913 64.1866 43.2853C63.3632 43.4793 62.0375 42.6702 61.9352 41.8456Z" fill="#4ECDC4"/>
<path d="M28.6597 27.9214C27.8439 26.3104 28.43 24.284 29.5743 22.8622C30.7493 21.4401 32.3591 20.5325 33.9689 19.6249C40.9539 15.6204 47.7194 11.1905 54.236 6.42717L52.6132 3.90874C44.1489 9.46157 35.6842 14.9838 27.2504 20.5363C26.6132 20.942 25.9763 21.3784 25.5872 22.0564C25.3178 22.5187 25.2327 23.0398 25.1471 23.5303C24.8638 25.3082 24.7032 27.1151 24.7258 28.8891C21.0827 31.0768 7.95046 40.0234 5.52068 41.4003C3.09089 42.7772 4.71287 45.2345 6.26032 44.2359C7.80778 43.2373 26.2545 31.2252 26.2545 31.2252C27.9158 31.9689 29.6368 32.5894 31.3865 33.0566C31.8778 33.2033 32.3993 33.3191 32.9185 33.2513C33.6824 33.1804 34.3192 32.744 34.9565 32.3382C43.4522 26.8462 51.9173 21.3545 60.413 15.8625L58.7287 13.3142C51.7436 17.3187 44.9777 21.7181 38.4922 26.5116C37.007 27.6011 35.5223 28.7213 33.7542 29.2026C31.986 29.684 29.8713 29.3744 28.7213 27.9512L28.6597 27.9214Z" fill="white"/>
<path d="M61.3987 18.7869C58.1175 13.3528 54.5022 8.10647 50.645 3.07739C50.2718 2.59267 49.8671 2.04718 49.9817 1.4339C50.039 1.12726 50.2194 0.880238 50.4308 0.663412C51.1567 0.01177 52.2891 0.0585546 53.1518 0.537045C54.014 0.98495 54.6359 1.77241 55.2263 2.49909C55.8478 3.25597 56.439 4.04382 57.0608 4.83129C59.2075 7.64897 61.1415 10.5917 63.076 13.5651C63.5437 14.2627 64.0118 14.9909 64.2059 15.8144C64.3999 16.6379 64.695 18.1943 64.0906 18.7832C63.4863 19.3722 61.9268 19.4226 61.3987 18.7869Z" fill="#4ECDC4"/>
<defs>
<linearGradient id="paint0_linear" x1="53.3688" y1="31.8283" x2="-8.76224" y2="32.6182" gradientUnits="userSpaceOnUse">
<stop stop-color="white"/>
<stop offset="0.5437" stop-color="#EEEEEE"/>
<stop offset="1" stop-color="#E5E5E5"/>
</linearGradient>
</defs>
</svg>
