<svg width="40" height="35" viewBox="0 0 40 35" fill="none" xmlns="http://www.w3.org/2000/svg">
<path d="M20.6599 33.9025C24.4718 31.0795 27.9371 27.8185 31.1055 24.314C34.0758 21.053 37.3926 17.4512 39.1748 13.4114C41.848 7.42466 37.6896 0.123779 30.5609 1.09723C28.7292 1.34059 26.947 2.16803 25.4124 3.14148C24.6698 3.57953 24.0262 4.11493 23.3332 4.65033C22.8381 5.03971 20.8579 7.32732 20.2639 7.32732C19.5708 7.32732 18.3332 5.86714 17.7886 5.42909C17.0461 4.79635 16.254 4.1636 15.4124 3.57953C13.6797 2.41139 11.749 1.38927 9.62031 1.09723C2.68962 0.0751064 -1.81533 7.03528 0.709418 13.022C2.64011 17.6946 6.69952 21.9291 10.1649 25.5795C11.9965 27.5264 13.9272 29.376 16.0064 31.1282C17.1451 32.1017 18.7787 33.9999 20.3629 33.9999C21.155 33.9999 21.155 32.7831 20.3629 32.7831C19.2243 32.7831 17.0956 30.4955 16.254 29.7654C14.8678 28.5486 13.5312 27.2831 12.2441 26.0176C9.5213 23.1946 6.94704 20.2255 4.62031 17.1105C2.34308 14.0441 -0.231176 9.90697 1.84803 6.1105C3.5807 2.94679 7.34308 1.58396 10.7589 2.60608C12.7886 3.23882 14.6203 4.45564 16.254 5.7698C16.8975 6.3052 17.4916 6.84059 18.1352 7.37599C18.4817 7.7167 19.2738 8.7875 19.7688 8.88484C20.3629 8.98219 20.3134 8.83617 20.8579 8.49546C22.4916 7.42466 23.7787 5.7698 25.4124 4.65033C28.5312 2.50873 32.3431 1.24325 35.7589 3.48219C39.6698 5.96449 39.5213 10.5397 37.4421 14.1902C33.3827 21.345 26.65 27.9158 20.0659 32.8317C19.4223 33.3185 20.0163 34.3406 20.6599 33.9025Z" fill="#EE4266"/>
</svg>
