<svg width="37" height="40" viewBox="0 0 37 40" fill="none" xmlns="http://www.w3.org/2000/svg">
<path d="M4.49546 18.8931H32.4605C34.7764 18.8931 36.4368 21.1177 35.694 23.2567L31.1933 36.6043C30.7127 37.9733 29.4455 38.8717 27.9599 38.8717H9.03978C7.55414 38.8717 6.28697 37.9733 5.80632 36.6043L1.262 23.2567C0.562875 21.1177 2.1796 18.8931 4.49546 18.8931Z" fill="black" stroke="black" stroke-width="0.4847" stroke-miterlimit="10" stroke-linejoin="round"/>
<path d="M18.6535 24.7434C25.0486 24.7434 30.2328 19.6677 30.2328 13.4065C30.2328 7.14528 25.0486 2.06958 18.6535 2.06958C12.2584 2.06958 7.07422 7.14528 7.07422 13.4065C7.07422 19.6677 12.2584 24.7434 18.6535 24.7434Z" fill="black" stroke="#E5F6E5" stroke-width="3" stroke-miterlimit="10" stroke-linejoin="round"/>
</svg>
