<svg width="35" height="39" viewBox="0 0 35 39" fill="none" xmlns="http://www.w3.org/2000/svg">
<path d="M3.49546 18.8931H31.4605C33.7764 18.8931 35.4368 21.1177 34.694 23.2567L30.1933 36.6043C29.7127 37.9733 28.4455 38.8717 26.9599 38.8717H8.03978C6.55414 38.8717 5.28697 37.9733 4.80632 36.6043L0.262001 23.2567C-0.437125 21.1177 1.1796 18.8931 3.49546 18.8931Z" fill="#EE4266"/>
<path d="M17.6535 24.7431C24.0486 24.7431 29.2328 19.6674 29.2328 13.4062C29.2328 7.14504 24.0486 2.06934 17.6535 2.06934C11.2584 2.06934 6.07422 7.14504 6.07422 13.4062C6.07422 19.6674 11.2584 24.7431 17.6535 24.7431Z" fill="#EE4266" stroke="#E5F6E5" stroke-width="3" stroke-miterlimit="10" stroke-linejoin="round"/>
</svg>
