<svg width="110" height="36" viewBox="0 0 110 36" fill="none" xmlns="http://www.w3.org/2000/svg">
<path d="M100.151 0V0.312655L99.9715 0.08933L89.943 7.81638V0.044665H63.6182V20.1439H57.8429V0H48.4412V0.044665H42.6211L33.488 15.8114C33.3089 6.92308 24.9817 0.044665 17.8185 0.044665V0H8.99878H0.04477H0V8.1737H0.04477V27.8263H0V36H0.04477H9.04355H17.8632V35.9553C22.6536 35.9553 27.9365 32.9181 30.9809 28.2283H48.486V36H57.8877V28.2283H63.663V35.9553H89.7639V27.9156H71.7216V21.3499H85.2422V14.2035H71.7216V8.08437H89.9878V7.95037L95.3602 14.9181L100.151 11.2109V35.9553H110V0H100.151ZM25.4294 19.8313C25.4294 23.9851 21.221 27.5136 18.2662 27.8263V27.7816H8.99878V8.12903H18.2662V8.08437C21.221 8.44169 25.4294 11.9256 25.4294 16.0794V19.8313ZM48.4412 20.1886H40.2483L47.2772 8.12903H48.4412V20.1886Z" fill="black"/>
</svg>
