<svg width="102" height="91" viewBox="0 0 102 91" fill="none" xmlns="http://www.w3.org/2000/svg">
<path d="M89.1499 0.307158C89.1499 0.307158 32.0403 56.9007 9.49476 90.2896C9.49476 90.2896 70.8296 80.9442 100.866 76.4342C100.871 76.4771 92.8703 24.5006 89.1499 0.307158Z" fill="#EE4266"/>
<path d="M58.9814 64.21C64.1592 57.1039 70.6574 49.7962 75.8352 42.6901C77.1209 50.8943 77.7734 56.3447 78.3437 61.1084C78.3437 61.1084 64.8238 63.3799 58.9814 64.21Z" fill="#6A32EF"/>
<path d="M84.1704 79.3472C83.929 77.3301 83.6875 75.3131 83.446 73.296C83.3227 72.266 81.7407 72.4554 81.864 73.4854C82.1054 75.5025 82.3469 77.5195 82.5884 79.5366C82.7117 80.5666 84.2938 80.3772 84.1704 79.3472Z" fill="black"/>
<path d="M61.5105 77.0103C61.6733 78.732 61.7933 80.4589 61.9612 82.2236C62.0417 83.2587 63.6238 83.0693 63.5432 82.0342C63.3804 80.3124 63.2604 78.5856 63.0926 76.8209C63.0171 75.8287 61.4351 76.0181 61.5105 77.0103Z" fill="black"/>
<path d="M43.2195 79.6354C43.425 81.352 43.6305 83.0687 43.8412 84.8283C43.9645 85.8583 45.5465 85.6689 45.4232 84.6389C45.2177 82.9222 45.0122 81.2056 44.8015 79.446C44.6833 78.4589 43.0962 78.6054 43.2195 79.6354Z" fill="black"/>
<path d="M24.5308 82.5693C24.8219 84.2757 25.0701 85.9872 25.3663 87.7366C25.5324 88.7614 27.1144 88.5721 26.9483 87.5472C26.6573 85.8408 26.409 84.1292 26.1129 82.3799C25.9468 81.355 24.3648 81.5444 24.5308 82.5693Z" fill="black"/>
<path d="M90.0313 77.9489C89.9028 76.8759 89.7795 75.846 89.6511 74.773C89.5278 73.743 87.9457 73.9324 88.069 74.9624C88.1975 76.0353 88.3208 77.0653 88.4492 78.1383C88.5726 79.1683 90.1546 78.9789 90.0313 77.9489Z" fill="black"/>
<path d="M93.7624 73.9761C93.8754 74.9203 93.9936 75.9073 94.1066 76.8515C94.2299 77.8815 95.812 77.6921 95.6887 76.6621C95.5756 75.718 95.4575 74.7309 95.3444 73.7867C95.2639 72.7516 93.6391 72.9461 93.7624 73.9761Z" fill="black"/>
<path d="M77.5236 79.6206C77.3951 78.5477 77.2667 77.4748 77.1382 76.4018C77.0149 75.3719 75.4329 75.5612 75.5562 76.5912C75.6846 77.6642 75.8131 78.7371 75.9415 79.81C76.0221 80.8451 77.6469 80.6506 77.5236 79.6206Z" fill="black"/>
<path d="M70.998 80.5323C70.8371 79.5503 70.6761 78.5684 70.5152 77.5864C70.3491 76.5615 68.7671 76.7509 68.9332 77.7758C69.0941 78.7578 69.255 79.7397 69.416 80.7217C69.5341 81.7088 71.1589 81.5143 70.998 80.5323Z" fill="black"/>
<path d="M57.21 82.749C57.0765 81.6331 56.9429 80.5173 56.8093 79.4015C56.686 78.3715 55.1039 78.5609 55.2272 79.5909C55.3608 80.7067 55.4944 81.8225 55.628 82.9383C55.7513 83.9683 57.3333 83.7789 57.21 82.749Z" fill="black"/>
<path d="M51.3684 83.5786C51.2023 82.5538 51.0414 81.5718 50.8804 80.5898C50.7144 79.565 49.1323 79.7544 49.2984 80.7792C49.4645 81.8041 49.6254 82.7861 49.7863 83.768C49.9524 84.7929 51.5344 84.6035 51.3684 83.5786Z" fill="black"/>
<path d="M39.4411 85.3983C39.323 84.4113 39.2048 83.4242 39.0866 82.4371C38.9633 81.4071 37.3813 81.5965 37.5046 82.6265C37.6228 83.6136 37.7409 84.6007 37.8591 85.5877C37.9773 86.5748 39.5593 86.3854 39.4411 85.3983Z" fill="black"/>
<path d="M33.6365 86.1806C33.5183 85.1935 33.4001 84.2064 33.2819 83.2193C33.1586 82.1893 31.5766 82.3787 31.6999 83.4087C31.8181 84.3958 31.9362 85.3829 32.0544 86.3699C32.1777 87.3999 33.7598 87.2105 33.6365 86.1806Z" fill="black"/>
<path d="M21.6266 88.0101C21.5238 87.1517 21.4159 86.2505 21.3132 85.3922C21.1899 84.3622 19.6078 84.5516 19.7312 85.5816C19.8339 86.4399 19.9418 87.3411 20.0446 88.1995C20.1679 89.2295 21.7499 89.0401 21.6266 88.0101Z" fill="black"/>
<path d="M16.4526 88.6295C16.3447 87.7283 16.2316 86.7841 16.1237 85.8829C16.0004 84.8529 14.4184 85.0423 14.5417 86.0723C14.6496 86.9735 14.7626 87.9177 14.8705 88.8189C14.9938 89.8489 16.5759 89.6595 16.4526 88.6295Z" fill="black"/>
<path d="M58.9814 64.21C64.1592 57.1039 70.6574 49.7962 75.8352 42.6901C77.1209 50.8943 77.7734 56.3447 78.3437 61.1084C78.3437 61.1084 64.8238 63.3799 58.9814 64.21Z" fill="#E5F6E5"/>
</svg>
