<svg width="138" height="124" viewBox="0 0 138 124" fill="none" xmlns="http://www.w3.org/2000/svg">
<path d="M121.282 0.417917C121.282 0.417917 43.5885 77.4093 12.9169 122.832C12.9169 122.832 96.3584 110.119 137.221 103.983C137.228 104.041 126.343 33.3313 121.282 0.417917Z" fill="#EE4266"/>
<path d="M80.2388 87.3531C87.2828 77.6858 96.123 67.7443 103.167 58.077C104.916 69.2381 105.804 76.6529 106.58 83.1336C106.58 83.1336 88.1869 86.2239 80.2388 87.3531Z" fill="#6A32EF"/>
<path d="M114.508 107.946C114.179 105.202 113.851 102.458 113.522 99.7137C113.354 98.3124 111.202 98.5701 111.37 99.9713C111.698 102.715 112.027 105.459 112.355 108.204C112.523 109.605 114.675 109.347 114.508 107.946Z" fill="black"/>
<path d="M83.6806 104.767C83.902 107.109 84.0652 109.458 84.2937 111.859C84.4032 113.267 86.5555 113.01 86.4459 111.601C86.2245 109.259 86.0612 106.91 85.8328 104.509C85.7302 103.159 83.578 103.417 83.6806 104.767Z" fill="black"/>
<path d="M58.797 108.338C59.0766 110.673 59.3562 113.008 59.6428 115.402C59.8105 116.803 61.9628 116.546 61.795 115.145C61.5154 112.809 61.2359 110.474 60.9493 108.08C60.7885 106.737 58.6293 106.937 58.797 108.338Z" fill="black"/>
<path d="M33.3731 112.329C33.769 114.651 34.1067 116.979 34.5097 119.359C34.7356 120.753 36.8878 120.495 36.6619 119.101C36.266 116.78 35.9282 114.451 35.5253 112.071C35.2994 110.677 33.1471 110.935 33.3731 112.329Z" fill="black"/>
<path d="M122.481 106.044C122.306 104.584 122.138 103.183 121.964 101.723C121.796 100.322 119.644 100.58 119.811 101.981C119.986 103.441 120.154 104.842 120.329 106.302C120.496 107.703 122.649 107.445 122.481 106.044Z" fill="black"/>
<path d="M127.557 100.639C127.711 101.924 127.872 103.267 128.026 104.551C128.194 105.952 130.346 105.695 130.178 104.293C130.024 103.009 129.863 101.666 129.71 100.382C129.6 98.9734 127.39 99.2381 127.557 100.639Z" fill="black"/>
<path d="M105.466 108.318C105.291 106.858 105.116 105.399 104.941 103.939C104.774 102.538 102.621 102.796 102.789 104.197C102.964 105.656 103.139 107.116 103.313 108.576C103.423 109.984 105.633 109.719 105.466 108.318Z" fill="black"/>
<path d="M96.5864 109.559C96.3675 108.223 96.1485 106.887 95.9296 105.551C95.7037 104.157 93.5514 104.414 93.7774 105.809C93.9963 107.144 94.2152 108.48 94.4342 109.816C94.5949 111.159 96.8053 110.894 96.5864 109.559Z" fill="black"/>
<path d="M77.8311 112.574C77.6493 111.056 77.4676 109.538 77.2859 108.02C77.1181 106.619 74.9659 106.876 75.1336 108.277C75.3154 109.795 75.4971 111.313 75.6788 112.831C75.8466 114.233 77.9988 113.975 77.8311 112.574Z" fill="black"/>
<path d="M69.8825 113.703C69.6565 112.309 69.4376 110.973 69.2187 109.637C68.9927 108.243 66.8405 108.5 67.0664 109.895C67.2923 111.289 67.5113 112.625 67.7302 113.961C67.9561 115.355 70.1084 115.097 69.8825 113.703Z" fill="black"/>
<path d="M53.6588 116.178C53.498 114.835 53.3373 113.493 53.1765 112.15C53.0087 110.748 50.8565 111.006 51.0243 112.407C51.185 113.75 51.3458 115.093 51.5065 116.436C51.6673 117.779 53.8195 117.521 53.6588 116.178Z" fill="black"/>
<path d="M45.7603 117.242C45.5996 115.899 45.4388 114.557 45.2781 113.214C45.1103 111.812 42.9581 112.07 43.1258 113.471C43.2866 114.814 43.4473 116.157 43.6081 117.5C43.7759 118.901 45.9281 118.643 45.7603 117.242Z" fill="black"/>
<path d="M29.4212 119.731C29.2814 118.563 29.1346 117.337 28.9949 116.17C28.8271 114.768 26.6749 115.026 26.8426 116.427C26.9824 117.595 27.1292 118.821 27.269 119.989C27.4367 121.39 29.589 121.132 29.4212 119.731Z" fill="black"/>
<path d="M22.3816 120.574C22.2349 119.348 22.0811 118.063 21.9343 116.837C21.7666 115.436 19.6143 115.694 19.7821 117.095C19.9288 118.321 20.0826 119.605 20.2294 120.831C20.3972 122.233 22.5494 121.975 22.3816 120.574Z" fill="black"/>
<path d="M80.2388 87.3531C87.2828 77.6858 96.123 67.7443 103.167 58.077C104.916 69.2381 105.804 76.6529 106.58 83.1336C106.58 83.1336 88.1869 86.2239 80.2388 87.3531Z" fill="#E5F6E5"/>
</svg>
