<svg width="56" height="61" viewBox="0 0 56 61" fill="none" xmlns="http://www.w3.org/2000/svg">
<path d="M11.7053 31.3086C10.1497 40.2446 12.7423 49.7221 18.5942 56.9656C19.483 58.0488 20.446 59.0642 21.6312 59.8089C26.0756 62.5168 32.2238 60.2151 36.1497 56.8302C43.2608 50.8052 46.8904 41.4631 45.6312 32.5948" fill="white"/>
<path d="M11.5561 13.4351C8.44494 11.9457 4.44494 13.0628 2.22272 15.7436C0.000499019 18.4245 -0.518019 22.2223 0.519018 25.5734C0.889388 26.7649 1.63013 28.0308 2.81531 28.3287C3.48198 28.5521 4.29679 28.4032 4.88939 28.7755C5.48198 29.1479 5.7042 29.8925 5.92642 30.5628C6.88939 33.616 8.96346 36.5202 12.0005 37.4138C15.0375 38.3074 18.8894 36.1479 18.8894 32.9457C22.519 38.233 30.8153 39.4245 35.8524 35.4777C38.4449 37.8606 41.5561 39.7968 44.8153 41.0628C46.6672 41.8074 48.6672 42.3287 50.5931 41.733C52.5931 41.1372 54.0005 39.4989 54.9635 37.6372C56.9635 33.616 56.0746 27.733 51.8524 26.1691C55.3338 24.3074 56.4449 19.2436 54.4449 15.8181C52.519 12.3925 48.1486 10.6798 44.2227 11.1266C43.4079 11.2011 42.4449 11.4989 42.0746 12.2436C43.9264 9.71169 42.9635 5.91382 40.6672 3.82872C38.4449 1.81808 35.1857 1.14786 32.0746 0.998928C30.0005 0.92446 27.8523 1.0734 26.0005 2.04148C24.1486 3.00957 22.7412 5.02021 22.9635 7.10531C20.4449 5.16914 17.0375 4.20106 14.1486 5.46701C11.2598 6.73297 9.55605 10.6053 11.3338 13.2862" fill="#BFBEC2"/>
</svg>
