<svg width="203" height="139" viewBox="0 0 203 139" fill="none" xmlns="http://www.w3.org/2000/svg">
<path d="M12.9668 10.4181L12.9668 15.8125L194.826 15.8125L194.826 10.4181L12.9668 10.4181Z" fill="#F5C530"/>
<path d="M27.6328 13.0811C27.6328 12.2045 27.6328 11.2605 27.6328 10.3839C27.6328 9.50728 26.2842 9.50728 26.2842 10.3839C26.2842 11.2605 26.2842 12.2045 26.2842 13.0811C26.2842 13.9577 27.6328 13.9577 27.6328 13.0811Z" fill="black"/>
<path d="M34.2412 10.3841C34.2412 11.2607 34.2412 12.2047 34.2412 13.0813C34.2412 13.9579 35.5898 13.9579 35.5898 13.0813C35.5898 12.2047 35.5898 11.2607 35.5898 10.3841C35.5898 9.50752 34.2412 9.50752 34.2412 10.3841Z" fill="black"/>
<path d="M42.2647 10.3841C42.2647 11.2607 42.2647 12.2047 42.2647 13.0813C42.2647 13.9579 43.6133 13.9579 43.6133 13.0813C43.6133 12.2047 43.6133 11.2607 43.6133 10.3841C43.6133 9.50752 42.2647 9.50752 42.2647 10.3841Z" fill="black"/>
<path d="M50.2881 10.3841C50.2881 11.2607 50.2881 12.2047 50.2881 13.0813C50.2881 13.9579 51.6367 13.9579 51.6367 13.0813C51.6367 12.2047 51.6367 11.2607 51.6367 10.3841C51.5693 9.50752 50.2881 9.50752 50.2881 10.3841Z" fill="black"/>
<path d="M58.2451 10.3841C58.2451 11.2607 58.2451 12.2047 58.2451 13.0813C58.2451 13.9579 59.5937 13.9579 59.5938 13.0813C59.5938 12.2047 59.5938 11.2607 59.5938 10.3841C59.5938 9.50752 58.2451 9.50752 58.2451 10.3841Z" fill="black"/>
<path d="M66.2705 10.3841C66.2705 11.2607 66.2705 12.2047 66.2705 13.0813C66.2705 13.9579 67.6191 13.9579 67.6191 13.0813C67.6191 12.2047 67.6191 11.2607 67.6191 10.3841C67.5517 9.50752 66.2705 9.50752 66.2705 10.3841Z" fill="black"/>
<path d="M74.2276 10.3841C74.2276 11.2607 74.2276 12.2047 74.2276 13.0813C74.2276 13.9579 75.5762 13.9579 75.5762 13.0813C75.5762 12.2047 75.5762 11.2607 75.5762 10.3841C75.5762 9.50752 74.2276 9.50752 74.2276 10.3841Z" fill="black"/>
<path d="M82.251 10.3841C82.251 11.2607 82.251 12.2047 82.251 13.0813C82.251 13.9579 83.5996 13.9579 83.5996 13.0813C83.5996 12.2047 83.5996 11.2607 83.5996 10.3841C83.5996 9.50752 82.251 9.50752 82.251 10.3841Z" fill="black"/>
<path d="M90.208 10.3841C90.208 11.2607 90.208 12.2047 90.208 13.0813C90.208 13.9579 91.5566 13.9579 91.5566 13.0813C91.5566 12.2047 91.5566 11.2607 91.5566 10.3841C91.5566 9.50752 90.208 9.50752 90.208 10.3841Z" fill="black"/>
<path d="M90.208 10.3841C90.208 11.2607 90.208 12.2047 90.208 13.0813C90.208 13.9579 91.5566 13.9579 91.5566 13.0813C91.5566 12.2047 91.5566 11.2607 91.5566 10.3841C91.5566 9.50752 90.208 9.50752 90.208 10.3841Z" fill="black"/>
<path d="M98.2315 10.3839C98.2315 11.2605 98.2315 12.2045 98.2315 13.0811C98.2315 13.9577 99.5801 13.9577 99.5801 13.0811C99.5801 12.2045 99.5801 11.2605 99.5801 10.3839C99.5801 9.50728 98.2315 9.50728 98.2315 10.3839Z" fill="black"/>
<path d="M106.189 10.3841C106.189 11.2607 106.189 12.2047 106.189 13.0813C106.189 13.9579 107.537 13.9579 107.537 13.0813C107.537 12.2047 107.537 11.2607 107.537 10.3841C107.537 9.50752 106.189 9.50752 106.189 10.3841Z" fill="black"/>
<path d="M114.214 10.3841C114.214 11.2607 114.214 12.2047 114.214 13.0813C114.214 13.9579 115.562 13.9579 115.563 13.0813C115.563 12.2047 115.563 11.2607 115.563 10.3841C115.563 9.50752 114.214 9.50752 114.214 10.3841Z" fill="black"/>
<path d="M122.235 10.3844C122.235 11.261 122.235 12.205 122.235 13.0816C122.235 13.9582 123.584 13.9582 123.584 13.0816C123.584 12.205 123.584 11.261 123.584 10.3844C123.517 9.50777 122.235 9.50777 122.235 10.3844Z" fill="black"/>
<path d="M130.192 10.3844C130.192 11.261 130.192 12.205 130.192 13.0816C130.192 13.9582 131.541 13.9582 131.541 13.0816C131.541 12.205 131.541 11.261 131.541 10.3844C131.541 9.50777 130.192 9.50777 130.192 10.3844Z" fill="black"/>
<path d="M138.218 10.3841C138.218 11.2607 138.218 12.2047 138.218 13.0813C138.218 13.9579 139.566 13.9579 139.566 13.0813C139.566 12.2047 139.566 11.2607 139.566 10.3841C139.566 9.50752 138.218 9.50752 138.218 10.3841Z" fill="black"/>
<path d="M146.175 10.3841C146.175 11.2607 146.175 12.2047 146.175 13.0813C146.175 13.9579 147.523 13.9579 147.523 13.0813C147.523 12.2047 147.523 11.2607 147.523 10.3841C147.523 9.50752 146.175 9.50752 146.175 10.3841Z" fill="black"/>
<path d="M154.198 10.3841C154.198 11.2607 154.198 12.2047 154.198 13.0813C154.198 13.9579 155.547 13.9579 155.547 13.0813C155.547 12.2047 155.547 11.2607 155.547 10.3841C155.547 9.50752 154.198 9.50752 154.198 10.3841Z" fill="black"/>
<path d="M162.155 10.3841C162.155 11.2607 162.155 12.2047 162.155 13.0813C162.155 13.9579 163.504 13.9579 163.504 13.0813C163.504 12.2047 163.504 11.2607 163.504 10.3841C163.504 9.50752 162.155 9.50752 162.155 10.3841Z" fill="black"/>
<path d="M170.179 10.3839C170.179 11.2605 170.179 12.2045 170.179 13.0811C170.179 13.9577 171.527 13.9577 171.527 13.0811C171.527 12.2045 171.527 11.2605 171.527 10.3839C171.527 9.50728 170.179 9.50728 170.179 10.3839Z" fill="black"/>
<path d="M178.204 10.3841C178.204 11.2607 178.204 12.2047 178.204 13.0813C178.204 13.9579 179.553 13.9579 179.553 13.0813C179.553 12.2047 179.553 11.2607 179.553 10.3841C179.485 9.50752 178.204 9.50752 178.204 10.3841Z" fill="black"/>
<path d="M186.161 10.3841C186.161 11.2607 186.161 12.2047 186.161 13.0813C186.161 13.9579 187.51 13.9579 187.51 13.0813C187.51 12.2047 187.51 11.2607 187.51 10.3841C187.51 9.50752 186.161 9.50752 186.161 10.3841Z" fill="black"/>
<path d="M194.185 10.3841C194.185 11.2607 194.185 12.2047 194.185 13.0813C194.185 13.9579 195.533 13.9579 195.533 13.0813C195.533 12.2047 195.533 11.2607 195.533 10.3841C195.466 9.50752 194.185 9.50752 194.185 10.3841Z" fill="black"/>
<path d="M98.3662 10.3841C98.3662 11.2607 98.3662 12.2047 98.3662 13.0813C98.3662 13.9579 99.7148 13.9579 99.7148 13.0813C99.7148 12.2047 99.7148 11.2607 99.7148 10.3841C99.7148 9.50752 98.3662 9.50752 98.3662 10.3841Z" fill="black"/>
<path d="M106.392 10.3841C106.392 11.2607 106.392 12.2047 106.392 13.0813C106.392 13.9579 107.74 13.9579 107.74 13.0813C107.74 12.2047 107.74 11.2607 107.74 10.3841C107.673 9.50752 106.392 9.50752 106.392 10.3841Z" fill="black"/>
<path d="M114.347 10.3841C114.347 11.2607 114.347 12.2047 114.347 13.0813C114.347 13.9579 115.695 13.9579 115.695 13.0813C115.695 12.2047 115.695 11.2607 115.695 10.3841C115.695 9.50752 114.347 9.50752 114.347 10.3841Z" fill="black"/>
<path d="M130.327 10.3839C130.327 11.2605 130.327 12.2045 130.327 13.0811C130.327 13.9577 131.676 13.9577 131.676 13.0811C131.676 12.2045 131.676 11.2605 131.676 10.3839C131.676 9.50728 130.327 9.50728 130.327 10.3839Z" fill="black"/>
<path d="M154.335 10.3841C154.335 11.2607 154.335 12.2047 154.335 13.0813C154.335 13.9579 155.684 13.9579 155.684 13.0813C155.684 12.2047 155.684 11.2607 155.684 10.3841C155.684 9.50752 154.335 9.50752 154.335 10.3841Z" fill="black"/>
<path d="M162.358 10.3841C162.358 11.2607 162.358 12.2047 162.358 13.0813C162.358 13.9579 163.707 13.9579 163.707 13.0813C163.707 12.2047 163.707 11.2607 163.707 10.3841C163.64 9.50752 162.358 9.50752 162.358 10.3841Z" fill="black"/>
<path d="M162.29 10.3841C162.29 11.2607 162.29 12.2047 162.29 13.0813C162.29 13.9579 163.639 13.9579 163.639 13.0813C163.639 12.2047 163.639 11.2607 163.639 10.3841C163.571 9.50752 162.29 9.50752 162.29 10.3841Z" fill="black"/>
<path d="M170.247 10.3841C170.247 11.2607 170.247 12.2047 170.247 13.0813C170.247 13.9579 171.596 13.9579 171.596 13.0813C171.596 12.2047 171.596 11.2607 171.596 10.3841C171.596 9.50752 170.247 9.50752 170.247 10.3841Z" fill="black"/>
<path d="M178.272 10.3841C178.272 11.2607 178.272 12.2047 178.272 13.0813C178.272 13.9579 179.621 13.9579 179.621 13.0813C179.621 12.2047 179.621 11.2607 179.621 10.3841C179.554 9.50752 178.272 9.50752 178.272 10.3841Z" fill="black"/>
<path d="M186.23 10.3841C186.23 11.2607 186.23 12.2047 186.23 13.0813C186.23 13.9579 187.578 13.9579 187.578 13.0813C187.578 12.2047 187.578 11.2607 187.578 10.3841C187.578 9.50752 186.23 9.50752 186.23 10.3841Z" fill="black"/>
<path d="M194.253 10.3841C194.253 11.2607 194.253 12.2047 194.253 13.0813C194.253 13.9579 195.602 13.9579 195.602 13.0813C195.602 12.2047 195.602 11.2607 195.602 10.3841C195.602 9.50752 194.253 9.50752 194.253 10.3841Z" fill="black"/>
<path d="M162.425 10.3841C162.425 11.2607 162.425 12.2047 162.425 13.0813C162.425 13.9579 163.773 13.9579 163.773 13.0813C163.773 12.2047 163.773 11.2607 163.773 10.3841C163.706 9.50752 162.425 9.50752 162.425 10.3841Z" fill="black"/>
<path d="M186.362 10.3841C186.362 11.2607 186.362 12.2047 186.362 13.0813C186.362 13.9579 187.711 13.9579 187.711 13.0813C187.711 12.2047 187.711 11.2607 187.711 10.3841C187.711 9.50752 186.362 9.50752 186.362 10.3841Z" fill="black"/>
<path d="M194.388 10.3841C194.388 11.2607 194.388 12.2047 194.388 13.0813C194.388 13.9579 195.736 13.9579 195.736 13.0813C195.736 12.2047 195.736 11.2607 195.736 10.3841C195.736 9.50752 194.388 9.50752 194.388 10.3841Z" fill="black"/>
<path d="M10.8439 15.7114L10.8439 22.9264C10.8439 25.8259 13.2714 28.2534 16.1709 28.2534L23.3859 28.2534C26.2854 28.2534 28.7129 25.8259 28.7129 22.9264L28.7129 15.7114C28.7129 12.8119 26.2854 10.3844 23.3859 10.3844L16.1709 10.3844C13.2714 10.3844 10.8439 12.8119 10.8439 15.7114Z" fill="black"/>
<path d="M88.3195 107.079C54.6911 107.079 27.43 114.204 27.43 122.993C27.43 131.782 54.6911 138.906 88.3195 138.906C121.948 138.906 149.209 131.782 149.209 122.993C149.209 114.204 121.948 107.079 88.3195 107.079Z" fill="black"/>
<mask id="mask0" mask-type="alpha" maskUnits="userSpaceOnUse" x="27" y="107" width="123" height="32">
<path d="M88.3195 107.079C54.6911 107.079 27.43 114.204 27.43 122.993C27.43 131.782 54.6911 138.906 88.3195 138.906C121.948 138.906 149.209 131.782 149.209 122.993C149.209 114.204 121.948 107.079 88.3195 107.079Z" fill="black"/>
</mask>
<g mask="url(#mask0)">
<path d="M126.823 134.726C127.7 142.413 129.723 157.652 129.723 157.652L56.8306 154.415C56.8306 154.415 49.5481 127.578 47.5252 114.901C46.716 109.237 126.823 134.726 126.823 134.726Z" fill="url(#paint0_linear)"/>
</g>
<path d="M191.085 30.6135C193.445 28.2535 207.201 21.1733 200.525 14.4977C196.547 10.5193 193.647 7.61981 192.703 6.67579C190.276 4.2483 185.016 7.1478 191.152 13.284C195.738 17.8692 190.208 19.2178 188.185 17.2623C186.23 15.3069 185.016 16.8578 185.016 17.5995C185.016 20.2293 188.725 22.2522 186.095 24.9494" fill="white"/>
<path d="M3.69743 21.3082C4.16944 18.0041 1.4048 2.76489 10.7776 4.04607C16.3069 4.7878 20.4201 5.32725 21.7687 5.52954C25.1402 6.00155 26.0168 11.9354 17.5206 10.7891C11.1147 9.9125 13.4074 15.1721 16.172 15.5766C18.9367 15.9138 18.3972 17.8018 17.7903 18.2739C15.7 19.8922 11.7891 18.139 11.3171 21.8477" fill="white"/>
<path d="M125.744 92.5816C155.346 66.5535 185.96 40.5929 193.377 33.1756L184.544 23.061C152.851 52.7303 122.171 61.3614 96.2774 61.4288C70.3168 61.3614 32.8256 59.8779 13.4731 20.5661L0.998499 20.1615C0.998497 43.4249 28.4426 77.4098 45.9745 91.0981C45.1653 103.101 47.4579 119.351 50.8969 131.017C51.5712 134.186 127.295 137.086 126.891 134.658C126.486 132.231 125.812 129.061 125.407 126.229C123.856 116.047 122.643 103.303 125.744 92.5816Z" fill="#FFE66D"/>
<path d="M122.439 77.0053C114.28 80.8488 105.986 84.9621 99.9852 87.5919C90.4775 91.7725 82.251 93.3909 74.1594 89.5473C66.0678 85.7038 63.438 82.5346 59.7968 74.6453C56.0881 66.7559 56.7624 60.4849 57.7739 57.6528C59.7968 52.191 62.966 47.1337 69.1696 44.2342L69.5742 44.0319C66.8769 38.6375 63.91 31.6922 71.7319 32.4339C76.0475 32.8385 78.8795 35.0637 83.3974 34.6591C86.4317 34.3894 89.9381 33.9848 92.6353 32.4339L110.302 24.2075" fill="white"/>
<path d="M85.3529 91.098C81.8466 83.5458 95.5349 86.3779 99.6481 84.4898C104.233 82.3321 106.661 78.4211 103.02 77.0725C99.8504 75.9262 95.6023 77.2748 94.5909 74.9822C93.3097 72.285 104.975 67.6997 108.819 65.9465C114.887 63.1145 112.864 50.3702 102.345 27.781C98.1647 18.8802 101.873 7.82168 118.798 -0.000223028C117.045 4.78732 120.349 15.4413 121.63 18.2734C123.586 22.454 136.735 50.7073 138.421 54.2137C140.848 59.4058 137.139 70.1946 122.507 77.0051C114.348 80.8486 106.054 84.9619 100.053 87.5916C94.928 89.8168 90.2079 91.3003 85.6901 91.6374L85.3529 91.098Z" fill="black"/>
<path d="M114.347 12.0698C114.616 16.1831 117.179 20.4312 118.865 24.0724C121.832 30.4108 125.473 36.3447 128.305 42.6831C131.676 50.1679 134.306 58.5967 129.047 65.9466C124.798 71.9479 118.73 75.1171 112.324 78.1514C111.515 78.4886 112.256 79.6349 112.998 79.2978C119.337 76.3308 125.136 73.229 129.519 67.6323C133.767 62.103 134.239 55.8995 132.283 49.3587C130.058 41.8065 125.945 34.9287 122.236 27.9833C120.888 25.421 119.674 22.7912 118.46 20.1614C117.381 17.734 115.763 14.8345 115.628 12.0698C115.628 11.2606 114.347 11.2606 114.347 12.0698Z" fill="white"/>
<path d="M123.247 61.4962C120.212 69.3181 113.604 71.7456 106.592 75.0496C105.782 75.3868 106.524 76.5331 107.266 76.1959C110.165 74.8473 113.2 73.6336 115.964 72.0827C120.145 69.8575 122.775 66.1489 124.528 61.8333C124.865 61.0916 123.584 60.7544 123.247 61.4962Z" fill="white"/>
<path d="M106.592 12.0024C104.03 17.0596 104.232 21.1054 106.457 26.2301C109.29 32.7709 113.2 39.1767 115.156 46.0546C115.358 46.8638 116.707 46.5266 116.437 45.7175C114.954 40.6602 112.324 35.8727 110.099 31.1526C108.818 28.3879 107.334 25.5558 106.457 22.5889C105.379 18.8802 105.985 16.0482 107.739 12.6767C108.143 11.9349 106.997 11.2606 106.592 12.0024Z" fill="white"/>
<path d="M112.594 22.7236C114.752 27.3089 116.91 31.8267 119.203 36.2771C121.495 40.8623 125.002 45.6499 124.732 50.9094C124.664 51.786 126.013 51.786 126.08 50.9094C126.35 45.987 123.72 42.1435 121.563 37.9628C118.865 32.7033 116.303 27.3763 113.808 22.0493C113.336 21.3076 112.19 21.9819 112.594 22.7236Z" fill="white"/>
<path d="M116.641 55.0903C118.597 59.8104 116.034 65.0699 111.651 67.2951C110.909 67.6997 111.584 68.846 112.325 68.4414C117.18 65.9465 120.147 59.9452 117.922 54.7531C117.585 53.944 116.304 54.2811 116.641 55.0903Z" fill="white"/>
<defs>
<linearGradient id="paint0_linear" x1="88.675" y1="143.838" x2="88.5645" y2="179.255" gradientUnits="userSpaceOnUse">
<stop stop-color="#F5C530"/>
<stop offset="0.2024" stop-color="#6A32EF"/>
<stop offset="1" stop-color="#5E26E2"/>
</linearGradient>
</defs>
</svg>
