<svg width="52" height="61" viewBox="0 0 52 61" fill="none" xmlns="http://www.w3.org/2000/svg">
<path d="M25.6 0C11.5 0 0 11.5 0 25.6C0 29.8 1 33.7 2.8 37.2C3.9 39.3 12 51.2 18.2 60.3H33C39.2 51.2 47.3 39.3 48.4 37.2C50.2 33.7 51.2 29.8 51.2 25.6C51.2 11.5 39.7 0 25.6 0Z" fill="#EE4266"/>
<path d="M17.7918 25.5004L13.0267 12.2223C12.9672 12.083 13.126 11.9436 13.265 12.0233L42.9275 26.854C43.0466 26.9138 43.0466 27.0929 42.9275 27.1526L13.2451 41.9834C13.1062 42.0432 12.9672 41.9237 13.0069 41.7844L17.7918 28.5063C17.8117 28.4466 17.8712 28.4068 17.9308 28.3869L36.7925 26.9934L17.9308 25.5999C17.8712 25.6198 17.8315 25.5601 17.7918 25.5004Z" fill="white"/>
</svg>
