<svg width="43" height="36" viewBox="0 0 43 36" fill="none" xmlns="http://www.w3.org/2000/svg">
<path d="M42.0832 4.80157C41.1483 5.21612 40.1779 5.54317 39.182 5.77994C40.2793 4.73724 41.1043 3.43305 41.5698 1.97734C41.7026 1.56176 41.2512 1.20239 40.876 1.42491C39.4906 2.24663 37.9984 2.86308 36.4406 3.25732C36.3502 3.2802 36.257 3.29179 36.1634 3.29179C35.8797 3.29179 35.6038 3.18643 35.3868 2.99521C33.7294 1.53447 31.5978 0.72998 29.3847 0.72998C28.427 0.72998 27.4601 0.879245 26.5108 1.17367C23.5694 2.08598 21.2999 4.51227 20.5878 7.50577C20.3207 8.62858 20.2484 9.75243 20.3727 10.846C20.3869 10.9717 20.3276 11.0594 20.2909 11.1005C20.2266 11.1726 20.1354 11.214 20.0407 11.214C20.0302 11.214 20.0193 11.2135 20.0085 11.2124C13.5699 10.6143 7.7639 7.51233 3.6599 2.47817C3.45063 2.22139 3.0493 2.25289 2.8825 2.539C2.07883 3.91778 1.65412 5.49475 1.65412 7.09942C1.65412 9.55864 2.64214 11.8762 4.35832 13.5657C3.63662 13.3946 2.9381 13.1251 2.28924 12.7647C1.97532 12.5903 1.58908 12.8145 1.58467 13.1735C1.53973 16.8268 3.67868 20.0776 6.88288 21.5414C6.81836 21.543 6.75383 21.5437 6.6892 21.5437C6.18129 21.5437 5.66702 21.4947 5.16086 21.3979C4.80734 21.3304 4.51035 21.6658 4.62012 22.0085C5.66015 25.2555 8.45585 27.6489 11.8014 28.1923C9.0248 30.0562 5.79136 31.0394 2.42599 31.0394L1.37683 31.0388C1.05357 31.0388 0.780179 31.2495 0.697802 31.5626C0.616655 31.871 0.766125 32.1963 1.04178 32.3566C4.83401 34.5636 9.1596 35.73 13.5528 35.73C17.3983 35.73 20.9954 34.9668 24.2443 33.4619C27.2227 32.0822 29.8547 30.1099 32.0671 27.5999C34.1281 25.2618 35.7397 22.5626 36.8571 19.5775C37.9223 16.7321 38.4853 13.6959 38.4853 10.7972V10.6591C38.4852 10.1937 38.6957 9.75571 39.0629 9.45759C40.4566 8.32605 41.6702 6.99406 42.6699 5.49865C42.9339 5.10379 42.5176 4.60891 42.0832 4.80157Z" fill="white"/>
</svg>
