<svg width="48" height="59" viewBox="0 0 48 59" fill="none" xmlns="http://www.w3.org/2000/svg">
<path d="M44.5332 31.0638C44.3961 38.2217 42.4778 45.3795 38.23 50.8695C33.9821 56.3595 29.0492 59.6952 22.1979 58.7918C18.4982 58.3053 15.6891 57.4019 12.469 55.5256C10.2081 54.2052 7.87864 52.0509 6.50838 49.8271C4.45299 46.5609 2.74016 33.3571 3.15124 29.535L13.4967 18.416" fill="white"/>
<path d="M14.1828 22.4461C20.0064 29.6039 30.0778 25.7818 44.5341 31.1328C49.33 26.4767 45.0822 2.91844 29.3242 0.694647C12.607 -1.73763 1.30229 2.43198 0.617156 13.3425C-0.0679754 24.2529 -0.890133 29.6734 3.08363 33.2871C3.08363 33.2871 11.3052 29.326 14.1828 22.4461Z" fill="#FFE66D"/>
<path d="M15.5527 23.8359C18.7729 26.8242 24.665 31.4107 26.5834 32.1057C25.1446 28.8395 24.3224 28.1445 23.5003 24.8088" fill="#FFE66D"/>
<path d="M24.2539 27.1722C26.0352 28.2841 31.5848 31.4113 32.544 32.7317C32.3385 31.5503 30.6941 29.674 29.8035 27.8671C34.9419 29.118 45.3559 33.0791 46.1781 35.9979C47.5484 34.1216 47.2058 25.3654 45.6985 18.416" fill="#FFE66D"/>
<path d="M4.24792 32.6619C5.27562 34.8857 8.42722 45.5182 10.5511 48.3675C12.675 51.2167 12.4695 55.5253 12.4695 55.5253C12.4695 55.5253 6.30332 52.4676 5.07008 45.8657C3.83684 39.2638 0.822266 28.0059 0.822266 28.0059L4.24792 32.6619Z" fill="#FFE66D"/>
<path d="M42.4798 32.7305C41.4521 37.0391 36.1766 48.297 33.9157 50.0344C31.6547 51.7717 32.4084 54.8989 33.025 56.7752C36.0396 54.1345 43.713 47.7411 44.3297 33.9814" fill="#FFE66D"/>
<path d="M8.42765 44.1281C14.5938 49.4791 33.9145 46.9078 38.0253 44.0586C38.0253 46.4214 35.4903 55.0386 33.0239 56.7759C30.6259 58.5132 18.4306 61.2235 12.4014 55.525C6.37226 49.8266 8.42765 44.1281 8.42765 44.1281Z" fill="#FFE66D"/>
<path d="M27.406 50.5914C24.46 51.3558 21.3084 50.9389 18.2253 50.9389C17.3346 50.9389 16.2384 51.2168 16.1014 52.0508C16.0329 52.8847 16.9235 53.3711 17.7457 53.6491C22.199 54.9695 27.406 54.8305 31.0372 51.9118C31.3798 51.6338 31.7224 51.2863 31.7909 50.8694C31.8594 50.4524 31.4483 49.8965 31.0372 50.0354C31.1057 50.1049 28.7763 50.2439 27.406 50.5914Z" fill="white"/>
</svg>
