<svg width="127" height="216" viewBox="0 0 127 216" fill="none" xmlns="http://www.w3.org/2000/svg">
<g clip-path="url(#clip0)">
<path d="M17.3187 142.415C11.5792 159.676 7.67213 178.53 4.81805 195.749C12.2923 198.134 19.7853 200.441 27.2595 202.825C30.2487 203.713 36.1095 205.296 39.3168 204.265C42.5241 203.234 46.7207 199.814 46.9215 195.59C48.4583 199.084 49.8022 202.696 48.6136 206.927C51.3087 207.333 53.3821 204.877 55.4129 201.918C57.4438 198.959 58.4331 196.569 59.6266 192.997C61.0579 197.944 61.5065 203.558 60.9487 209.256C67.1525 210.1 69.69 210.139 75.9714 211.003L76.5514 208.268C80.046 193.832 83.6026 174.729 88.5848 157.203" fill="#FAD779"/>
<path d="M97.1543 119.431C98.1917 113.109 95.9923 103.868 92.3201 99.6927C84.644 91.0153 83.2207 81.962 85.7122 70.6522C88.2036 59.3424 93.3288 40.2079 96.3635 29.0297C99.9456 15.9299 99.6367 13.4726 86.8311 10.3725C74.0255 7.27249 73.2438 11.5198 69.821 22.6041C66.417 33.6108 63.2133 53.2926 60.2562 64.4896C57.2991 75.6867 51.9115 83.009 41.0977 87.2924C35.9224 89.3259 28.6918 98.8311 27.7712 102.634C27.1512 105.195 25.4978 112.025 25.4978 112.025L94.8809 128.821C94.8809 128.821 96.1169 125.752 97.1543 119.431Z" fill="black"/>
<path d="M23.248 121.996C19.7556 121.151 19.8397 119.446 19.5995 118.402C19.3593 117.358 19.5447 116.253 19.7114 115.225C20.0847 113.344 20.4768 111.384 21.6074 109.769C22.738 108.153 24.7248 107.073 26.6062 107.446C26.6062 107.446 69.1527 117.335 91.2714 122.69C93.3669 123.197 95.4623 123.704 97.2147 124.95C98.9671 126.196 100.454 128.199 99.2703 133.088C98.1242 137.823 95.9495 139.679 92.4759 138.756" fill="#B3B3B3"/>
<path d="M96.6105 137.621C96.5599 141.223 95.8819 146.399 92.6795 148.089C90.982 148.993 89.0442 148.852 87.1064 148.712C72.4741 147.388 32.3434 139.398 19.3155 132.465C16.7095 131.012 17.2788 124.249 20.5342 119.286" fill="#B3B3B3"/>
<path d="M92.3902 148.266C94.6467 152.18 93.2139 157.42 90.0115 159.11C88.3139 160.013 86.3761 159.873 84.4383 159.732C69.8061 158.408 29.6753 150.419 16.6475 143.486C14.0414 142.033 14.7471 135.385 19.4183 130.682" fill="#B3B3B3"/>
</g>
<defs>
<clipPath id="clip0">
<rect width="81.6083" height="201.066" fill="white" transform="translate(79.3164 215.51) rotate(-166.391)"/>
</clipPath>
</defs>
</svg>
