<svg width="19" height="15" viewBox="0 0 19 15" fill="none" xmlns="http://www.w3.org/2000/svg">
<path d="M18.1232 12.0934C16.0715 9.87079 13.7634 7.73361 11.5407 5.59643L14.2763 2.86085C11.8827 0.467215 9.06162 -1.49899 5.98409 1.57855C5.98409 1.57855 4.61629 2.94634 2.47912 5.169L3.163 6.10936L1.79523 7.1352L1.02583 6.62227C0.769367 6.87873 0.256461 7.39165 0 7.64811C0.85487 8.4175 4.01789 11.495 4.70178 12.3499C4.95825 12.0934 5.47116 11.5805 5.8131 11.3241L5.38567 10.6402L6.41152 9.27238L7.26639 9.87078C7.77932 9.35786 8.29222 8.84494 8.71966 8.41751C10.9423 10.6402 13.2505 12.9483 15.3022 15L18.1232 12.0934Z" fill="#FFE66D"/>
</svg>
