<svg width="49" height="53" viewBox="0 0 49 53" fill="none" xmlns="http://www.w3.org/2000/svg">
<path d="M48.9469 26.0246C48.6868 31.8849 42.9649 51.3134 27.6199 51.9998C21.1178 52.2638 14.3036 46.5091 11.3386 39.0122C9.98616 35.6861 7.9575 25.6023 11.3386 21.5898" fill="white"/>
<path d="M44.8898 26.6586C50.9238 26.7642 48.479 14.727 47.0746 10.6089C45.6701 6.49094 42.8612 3.79839 38.8559 2.21454C36.8272 1.42261 34.6425 1.26423 32.5098 1.10584C26.7879 0.736278 20.6499 0.841868 16.0204 4.27355C10.2465 8.54994 9.36224 16.5748 9.10215 23.8077L9.15417 23.6493C6.39727 24.3357 3.84844 25.5499 1.55969 27.2394C0.987504 27.6617 0.415317 28.1369 0.155232 28.8232C-0.67704 30.9878 2.23591 32.5717 4.47264 33.0468C17.1128 35.581 39.6361 38.9071 42.9652 36.1617C45.462 34.0499 45.462 31.463 46.5024 26.7114" fill="#FFE66D"/>
<path d="M48.6353 17.7891C49.1555 21.5903 48.9474 26.0251 48.9474 26.0251C48.9474 26.0251 45.3582 27.5034 40.8848 27.2922" fill="#FFE66D"/>
</svg>
