<svg width="18" height="15" viewBox="0 0 18 15" fill="none" xmlns="http://www.w3.org/2000/svg">
<path d="M8.92829 14.0329C11.3152 12.2143 13.9295 9.48634 15.7481 6.87208C16.4301 5.8491 17.1121 4.71247 17.1121 3.46216C16.9984 1.41622 15.0661 0.165921 13.3612 0.393248C11.6562 0.620576 10.2923 1.98454 8.92829 3.23484C7.56433 1.98454 6.20035 0.620576 4.4954 0.393248C2.79044 0.165921 0.744507 1.41622 0.744507 3.46216C0.744507 4.71247 1.31282 5.8491 2.10847 6.87208C3.92709 9.37268 6.54135 12.2143 8.92829 14.0329Z" fill="#EE4266"/>
<path d="M9.15538 14.26C11.8833 12.2141 19.0441 6.4172 16.9982 2.21164C16.3162 0.847677 14.8386 0.0520448 13.3609 0.165709C12.2243 0.279372 11.4287 1.07501 10.4057 1.52967C8.70073 2.43898 8.92805 2.43898 7.33676 1.52967C5.74546 0.62036 4.26785 -0.402624 2.44923 0.506686C0.857939 1.18867 0.175953 2.77996 0.40328 4.48492C0.744272 6.75819 3.01754 8.91781 4.49516 10.6228C5.40447 11.6457 7.45043 14.3737 8.92806 14.3737C9.26905 14.3737 9.26905 13.8054 8.92806 13.8054C8.24608 13.8054 6.99578 11.3284 6.42746 10.8738C5.0635 9.62348 4.13471 8.97227 2.99807 7.49464C1.63411 5.78968 1.53992 6.30355 1.88091 3.57562C1.42626 1.30235 2.10824 0.5067 4.15419 1.30235C5.29082 1.07502 6.20013 1.30234 6.88211 2.09799C7.2231 2.32532 8.24608 3.57562 8.70073 3.57562C8.8144 3.57562 8.8144 3.46195 8.92806 3.46195C9.49638 3.46195 10.8603 1.64333 11.4287 1.416C12.679 1.30234 13.9293 1.18867 15.2932 1.075C15.5205 2.6663 15.7479 4.37126 15.9752 5.96255C15.5205 7.55384 13.4746 9.25879 12.338 10.5091C11.2013 11.6457 10.0647 12.7824 8.70073 13.8054C8.47341 14.0327 8.81439 14.3737 9.15538 14.26Z" fill="#EE4266"/>
</svg>
