<svg width="29" height="31" viewBox="0 0 29 31" fill="none" xmlns="http://www.w3.org/2000/svg">
<path d="M21.4395 8.8374L26.8692 13.5968L21.4395 18.4232" stroke="black" stroke-width="3" stroke-miterlimit="10" stroke-linecap="round" stroke-linejoin="round"/>
<path d="M26.8679 13.5969H10.3105" stroke="black" stroke-width="3" stroke-miterlimit="10" stroke-linecap="round" stroke-linejoin="round"/>
<path d="M25.6618 19.898V21.9761C25.6618 23.5849 24.12 24.9256 22.3101 24.9256H5.68568C3.80873 24.9256 2.33398 23.5849 2.33398 21.9761V4.94949C2.33398 3.34068 3.87576 2 5.68568 2H22.3101C24.187 2 25.6618 3.34068 25.6618 4.94949V7.02754" stroke="black" stroke-width="3" stroke-miterlimit="10" stroke-linecap="round" stroke-linejoin="round"/>
<path d="M2.33398 17.9541V22.2442C2.33398 23.3168 3.00432 24.3223 4.07686 24.7915L12.322 28.8806C14.5341 29.9531 17.3496 28.5454 17.3496 26.3333V10.1111C17.3496 9.03857 16.6792 8.03307 15.6067 7.56383L7.29449 3.47476C5.08237 2.40222 2.33398 3.80993 2.33398 6.02205V6.96052" fill="black"/>
<path d="M2.33398 17.9541V22.2442C2.33398 23.3168 3.00432 24.3223 4.07686 24.7915L12.322 28.8806C14.5341 29.9531 17.3496 28.5454 17.3496 26.3333V10.1111C17.3496 9.03857 16.6792 8.03307 15.6067 7.56383L7.29449 3.47476C5.08237 2.40222 2.33398 3.80993 2.33398 6.02205V6.96052" stroke="black" stroke-width="3" stroke-miterlimit="10" stroke-linecap="round" stroke-linejoin="round"/>
</svg>
