<svg width="46" height="35" viewBox="0 0 46 35" fill="none" xmlns="http://www.w3.org/2000/svg">
<path d="M1.32802 3.45381C7.47142 8.6566 18.2512 17.8099 21.4195 20.6639C21.8448 21.0491 22.301 21.2449 22.7746 21.2449C23.2472 21.2449 23.7026 21.0509 24.127 20.6676C27.298 17.8108 38.0777 8.6566 44.2212 3.45381C44.6037 3.13051 44.662 2.56225 44.3523 2.16699C43.6365 1.25366 42.5692 0.72998 41.4253 0.72998H4.1238C2.98001 0.72998 1.91263 1.25366 1.19688 2.16708C0.887219 2.56225 0.945532 3.13051 1.32802 3.45381Z" fill="white"/>
<path d="M44.6157 6.27346C44.2852 6.11959 43.8963 6.17327 43.6213 6.40827C39.5978 9.81875 34.2968 14.3248 30.2989 17.7635C30.0886 17.9439 29.9702 18.2089 29.9747 18.4866C29.9793 18.7635 30.1077 19.0248 30.3244 19.1979C34.0392 22.173 39.6371 26.2657 43.6796 29.1744C43.8408 29.291 44.032 29.3502 44.2241 29.3502C44.3699 29.3502 44.5155 29.3165 44.6495 29.2473C44.961 29.0879 45.1567 28.7673 45.1567 28.4176V7.11948C45.1566 6.75614 44.9453 6.42558 44.6157 6.27346Z" fill="white"/>
<path d="M1.87167 29.1744C5.91511 26.2656 11.514 22.1731 15.2278 19.1978C15.4445 19.0248 15.5729 18.7634 15.5775 18.4866C15.582 18.2088 15.4636 17.9438 15.2533 17.7635C11.2553 14.3248 5.95331 9.81867 1.92999 6.4082C1.65311 6.1732 1.26337 6.12136 0.935521 6.27339C0.605839 6.42551 0.394531 6.75607 0.394531 7.11941V28.4176C0.394531 28.7673 0.590365 29.0879 0.901775 29.2473C1.03562 29.3165 1.18136 29.3502 1.3271 29.3502C1.51926 29.3502 1.71046 29.291 1.87167 29.1744Z" fill="white"/>
<path d="M44.0135 31.7113C40.1094 28.9183 32.9177 23.711 28.6248 20.2267C28.2751 19.9417 27.7687 19.9508 27.4245 20.2476C26.5822 20.9825 25.8772 21.6019 25.3773 22.0517C23.8418 23.4377 21.7108 23.4377 20.1718 22.0498C19.6736 21.6009 18.9688 20.9798 18.1264 20.2476C17.7849 19.9488 17.2776 19.9397 16.927 20.2266C12.6485 23.699 5.44868 28.9127 1.53822 31.7112C1.32053 31.8679 1.1803 32.1092 1.15303 32.376C1.12662 32.6429 1.21492 32.9078 1.39799 33.1045C2.10387 33.8651 3.09833 34.3013 4.12471 34.3013H41.4263C42.4527 34.3013 43.4462 33.8651 44.1538 33.1046C44.3359 32.9088 44.4252 32.6438 44.3988 32.377C44.3714 32.1103 44.2312 31.868 44.0135 31.7113Z" fill="white"/>
</svg>
