<svg width="168" height="182" viewBox="0 0 168 182" fill="none" xmlns="http://www.w3.org/2000/svg">
<path d="M106.696 140.847C106.034 139.956 104.361 139.026 103.699 138.136C103.292 137.559 103.924 136.996 103.491 136.445C103.135 135.974 101.741 135.437 101.384 134.966C100.952 134.363 101.584 133.8 101.152 133.197C100.77 132.647 99.3502 132.136 98.969 131.587C98.6127 131.115 99.3211 130.63 98.9392 130.132C98.507 129.53 97.0107 128.888 96.5785 128.286C96.2221 127.814 96.905 127.303 96.5487 126.831C96.2179 126.386 94.8487 125.928 94.5187 125.43C94.0609 124.802 94.6159 124.159 94.1581 123.531C93.4462 122.535 91.6703 121.501 90.9585 120.506C90.094 119.301 90.2423 118.082 89.3778 116.877C88.5636 115.777 86.7374 114.638 85.9233 113.537C85.1858 112.516 85.5123 111.533 84.7749 110.512C84.1141 109.569 82.3886 108.639 81.7278 107.696C80.8378 106.465 80.9861 105.246 80.1216 104.041C79.4353 103.072 77.6842 102.116 76.9979 101.147C76.3107 100.23 76.7139 99.3261 76.0268 98.4089C75.1879 97.2302 73.3098 96.0908 72.4708 94.9121C71.5552 93.6546 71.6524 92.3835 70.7631 91.1004C69.8475 89.8429 67.919 88.599 67.0034 87.3415C66.19 86.1891 66.3887 85.0751 65.5498 83.8964C64.8123 82.8748 63.062 81.8667 62.3246 80.845C61.7397 80.033 62.1933 79.2337 61.6084 78.4216C60.871 77.4 59.0951 76.3656 58.3576 75.344C57.6457 74.3486 57.9722 73.366 57.234 72.3962C56.5469 71.4791 54.8733 70.5498 54.1862 69.6327C53.5246 68.7418 53.9278 67.838 53.2663 66.9471C52.6047 66.0562 50.9567 65.1532 50.2951 64.2623C49.6336 63.3714 50.0623 62.4939 49.4008 61.603C48.8671 60.8435 47.243 60.0707 46.7093 59.3112C46.2515 58.6824 46.8321 58.0664 46.3743 57.4377C45.942 56.8352 44.4969 56.2463 44.0647 55.6438C43.6068 55.015 44.1619 54.3727 43.7041 53.744C43.2718 53.1415 41.8011 52.5263 41.3433 51.8976C40.9111 51.2951 41.5172 50.7054 41.085 50.1029C40.6527 49.5004 39.2076 48.9115 38.7754 48.309C38.3935 47.811 39.1019 47.3264 38.72 46.8284C38.1855 46.1208 36.6389 45.3749 36.13 44.6936C35.494 43.8289 35.922 43.0033 35.3124 42.1131C34.6764 41.2485 33.0275 40.3974 32.4179 39.5072C31.9345 38.8521 32.4896 38.2098 32.0325 37.5292C31.6003 36.9267 29.8484 36.0225 29.4161 35.42C28.8057 34.5816 29.4638 33.9925 28.8534 33.1542C28.1671 32.1851 26.416 31.229 25.7296 30.2599C25.1703 29.4741 25.6495 28.701 25.0638 27.9409C24.5549 27.2596 23.0594 26.5662 22.5505 25.8849C22.0671 25.2299 22.6477 24.6139 22.1643 23.9588C21.6809 23.3038 20.1592 22.6361 19.7021 21.9554C19.2699 21.3529 19.876 20.7632 19.4438 20.1607C19.0115 19.5582 17.5409 18.943 17.1086 18.3406C16.5997 17.6593 17.1299 16.9388 16.621 16.2575L16.7016 16.0767C21.7515 11.8286 31.7266 2.99323 31.7266 2.99323C42.6766 13.7208 63.0371 33.9627 73.7763 44.8954C93.3365 64.8418 107.223 78.8509 127.126 98.4121L131.038 102.433L138.253 112.855" fill="white"/>
<path d="M148.627 118.772C141.579 111 134.965 105.415 127.026 98.1514C130.719 101.208 129.753 108.337 128.027 112.626C126.273 116.94 122.744 120.22 119.168 123.188C115.591 126.156 111.834 129.044 109.437 133.013C105.603 139.301 105.69 147.248 106.043 154.73C106.197 158.263 106.402 161.848 107.65 165.187C108.897 168.525 111.317 171.645 114.674 172.828C120.227 174.792 125.84 171.07 130.385 167.569C139.844 160.207 149.304 152.845 158.762 145.535C160.995 143.823 163.309 141.93 164.284 139.294C165.286 136.58 156.033 126.912 148.627 118.772Z" fill="#EE4266"/>
<path d="M136.194 121.917C126.768 128.786 123.866 135.241 121.32 143.856C120.855 145.434 120.467 147.039 120.598 148.651C120.729 150.262 121.431 151.932 122.768 152.832C124.284 153.863 126.362 153.836 128.112 153.157C129.835 152.503 131.308 151.275 132.702 150.071C136.858 146.591 141.689 141.38 143.118 136.152C144.604 130.666 138.946 125.378 136.194 121.917Z" fill="#4ECDC4"/>
</svg>
