<?xml version="1.0" encoding="utf-8"?>
<!-- Generator: Adobe Illustrator 23.0.2, SVG Export Plug-In . SVG Version: 6.00 Build 0)  -->
<svg version="1.1" id="Layer_1" xmlns="http://www.w3.org/2000/svg" xmlns:xlink="http://www.w3.org/1999/xlink" x="0px" y="0px"
	 viewBox="0 0 142 399" style="enable-background:new 0 0 142 399;" xml:space="preserve">
<style type="text/css">
	.st0{fill:#E5F6E5;}
</style>
<path class="st0" d="M0,0v399h142V0H0z M131.7,197.2c-0.1,0.5-0.7,1-1.2,0.9s-0.7-0.6-1-1c-0.4-0.9-0.9-1.8-1.3-2.8l-0.4-0.3
	c-0.7,4.2-1.5,8.3-2.2,12.5c-0.3,1.4-0.5,2.8-1.3,4c-0.8,1.1-2.3,1.9-3.6,1.4c-1.8-0.7-2.1-3-2.1-5c-0.9,0-1.6-0.6-2.1-1.3
	s-0.7-1.6-0.9-2.5c-1.4-6.6,0.2-14.3-0.7-20.3c-2-6.3-3.9-12.5-6.1-18.5c-1.6-4.3-3.4-8.4-4.1-12.9c-1-6.1-2-11.3-1.5-17
	c0,0-2.5-13-3.7-20.5c-3,8.7-4.1,18.1-3.2,27.3c1.6,16,9,31,9.4,47c0,0-0.5,26.8-3.8,39.7c-0.7,2.7-1.5,5.4-2.2,8.1
	c-1.3,5.4-2.6,16-2.6,16c-1.5,13.1-2.9,26.5,0,39.3c0,0,2.1,16.7,0.7,25c-1.6,9.4-6.5,17.9-9.3,27.1v0.1c-0.3,1.8-0.7,3.5-0.9,5.3
	c-0.2,1.3-0.3,2.7,0,3.9c0.2,1,0.7,1.9,1.3,2.8c2.3,3.9,5.6,7.8,9,10.7c0.6,0.5,1.2,1,1.6,1.7c0.8,1.4,1,3.2,0.5,4.8
	c-0.4,1-0.7,1.9-1.1,2.9c-0.2,0.4-1,1.1-1.6,1.2c-0.4,0.1-1.3,0-1.3,0c-5.1-0.9-13.1-4.9-17.5-8.7c-3.3-2.8-2-8.4-1.6-12.7
	c0.4-4.3,1.4-8.6,1.6-12.8c0.1-2.6,0-5.2-0.2-7.8c-0.3-4-0.5-11.5-0.5-11.5c-3.5-18,5.4-36.5-0.3-53.5l-0.1,0.1
	c-2.9-10.3-0.6-32.7-0.4-41.3c0.1-7.1-2-14.2-2.5-21.3c-0.3-4.5-0.5-6.4-3.3-12.5v0.3c-3,8.9-4.6,18.3-4.7,27.8
	c0,14.8,3.6,29.9,0.1,44.2c-0.7,2.9-1.7,5.8-2.1,8.7c-0.7,4.9,0.2,15,0.2,15c2.1,21-1,63.5-1,63.5c1.5,7.3-0.6,19.6-1.7,29.3
	c-0.2,1.7-0.5,3.6-1.9,4.6c-1.7,1.1-3.9,0.4-5.8-0.5c-1.9-0.9-3.8-1.8-5.1-3.5c-1.3-1.6-1.7-4.1-0.5-5.8V378
	c1.4-4.3,2.8-8.7,4.2-13.1c0.6-1.9,1.3-3.9,1.5-5.9c0.5-3.8-0.2-7.7-1-11.4c-3-13.5-7.9-26.7-8.9-40.5l0.1,0.2
	c-1.2-14.3,5.2-32.8-0.2-55.5c-4.3-18-7.9-43.6-7.9-54.8s3.3-31,7.7-45.8c0.8-2.6,1.6-5.3,2-8c0.6-4,0.1-8.2-0.3-12.2
	c-0.7-5.8-1.3-11.6-2-17.4l-0.4-0.9c0.8,3.6-0.8,7.3-2,10.8c-1.1,3.4-2.4,10.5-2.4,10.5c0.1,6.4-1.3,12.5-3.1,18.5
	c-2.9,10.1-8.5,30.5-8.5,30.5c0.3,5.3,0.6,10.7-0.1,15.9c-0.3,2.5-1,5.1-3,6.6l0.1,0.1c-0.1,0.7-0.2,1.5-0.3,2.2
	c-0.2,1.3-0.5,2.7-1.6,3.3c-0.6,0.3-1.3,0.3-1.9,0.3c-0.7,0-1.4,0-2-0.4c-1-0.6-1.3-2-1.6-3.2c-0.8-4.9-2-16.2-2-16.2
	c-0.8,1.1-1.7,2.2-2.5,3.3c-0.7,0.9-1.8,1.9-2.8,1.4c-0.4-2,0.3-4,0.9-5.9c0.7-2,1.3-3.9,2.4-5.7c1.9-2.9,5.2-5,6.3-8.4
	c0,0,2.3-16.3,3.8-24.2c1.4-7.9,2.9-13.4,7.2-22.1v-0.2c0.3-2.9,0.2-5.8,0.3-8.7c0.4-7.8,2.1-22.8,2.1-22.8
	c0.3-5.2,0.6-10.3,1.1-15.5c0.4-4.1,1-8.4,3.6-11.4c2.1-2.5,5.3-3.7,8.3-4.8c3.5-1.3,7-2.7,10.5-4c1.3-0.5,2.6-1,3.6-2
	c0.9-1,1.3-2.7,0.5-3.8l-0.2-0.7c-2.2,1.8-4.9,3.2-7.7,3.9c-1.3,0.4-3,0.4-3.9-0.7c-0.8-1-0.5-2.5-0.8-3.7c-0.5-1.9-2.3-3-3.4-4.6
	c-0.6-0.8-1-1.8-0.6-2.7c0.1-0.3,0.3-0.6,0.3-0.9c0.1-1.4-2.2-1.5-3-2.7c-0.4-0.7-0.3-1.5,0.1-2.2c0.4-0.7,1-1.2,1.5-1.8
	c1.8-2.1,2-7.4,2-7.4c0.2-2.8-0.9-5.6-0.9-8.4c0-3.8,2-7.4,4.9-9.8s6.5-3.7,10.3-4.3c6.1-0.9,12.7,0.4,17.5,4.3s7.5,10.7,5.7,16.7
	c-0.7,2.4-2,4.6-2.9,6.9c-3.1,8,1.9,21.6,6.5,23s17.3,4.6,22.9,11.1c4.1,4.8,4.1,11.8,3.9,18.2v-0.2c-0.3,13.8,0,27.5,0.8,41.3
	c0,0,7,15.3,8.2,23.6c1.1,8.2,0.4,22.6,1.5,24.8c1,2.2,3.3,3,4.7,4.7c1.2,1.5,1.7,3.5,2.3,5.3c0.4,1.7,0.9,3.3,1.3,5
	C131.7,196.1,131.9,196.7,131.7,197.2z"/>
</svg>
