<svg width="17" height="15" viewBox="0 0 17 15" fill="none" xmlns="http://www.w3.org/2000/svg">
<path d="M16.5379 14.1605C16.5379 10.4844 19.8647 0 8.66587 0C-2.74386 0 0.395573 12.6849 0.395573 14.3158L16.5379 14.1605Z" fill="#4ECDC4"/>
<path d="M9.87762 12.0135C9.81639 9.2278 9.847 6.16657 9.93884 3.38086C8.98986 3.56453 8.01027 3.56453 7.06129 3.41147C7.03068 6.13596 7.03068 8.86045 7.06129 11.6156C7.06129 11.7074 7.06129 11.7992 7.12251 11.8605C7.18374 11.9217 7.27558 11.9217 7.3368 11.9217C8.01027 11.9523 8.98986 11.9829 9.66333 11.9829" fill="white"/>
<path d="M13.3674 8.79938C13.3674 8.15652 13.4287 7.05448 13.4287 6.41162C10.1225 6.47285 6.81641 6.50346 3.51029 6.56468C3.51029 7.08509 3.51029 7.63611 3.47968 8.15652C3.47968 8.24836 3.47968 8.3708 3.5409 8.46264C3.63274 8.58509 3.81641 8.6157 4.00008 8.6157C7.06131 8.67693 10.4593 8.73815 13.5205 8.76876" fill="white"/>
</svg>
