<svg width="33" height="33" viewBox="0 0 33 33" fill="none" xmlns="http://www.w3.org/2000/svg">
<path d="M16.0935 3.98231C22.7854 3.98231 28.2457 9.4426 28.2457 16.1345C28.2457 22.8265 22.7854 28.2457 16.0935 28.2457C9.40155 28.2457 3.98231 22.7854 3.98231 16.0935C3.98231 9.40155 9.40155 3.98231 16.0935 3.98231ZM16.0935 0C7.22564 0 0 7.22564 0 16.0935C0 24.9613 7.22564 32.1869 16.0935 32.1869C25.0024 32.1869 32.1869 24.9613 32.1869 16.0935C32.1869 7.22564 25.0024 0 16.0935 0Z" fill="#EE4266"/>
<path d="M8.86719 8.99097L12.5621 19.9115L23.3185 23.4422L19.7057 12.6038L8.86719 8.99097Z" fill="#EE4266" stroke="#EE4266" stroke-width="0.6224" stroke-miterlimit="10" stroke-linejoin="round"/>
<path d="M16.0938 18.1463C17.2275 18.1463 18.1465 17.2272 18.1465 16.0935C18.1465 14.9598 17.2275 14.0408 16.0938 14.0408C14.9601 14.0408 14.041 14.9598 14.041 16.0935C14.041 17.2272 14.9601 18.1463 16.0938 18.1463Z" fill="#E5F6E5"/>
</svg>
