<svg width="36" height="36" viewBox="0 0 36 36" fill="none" xmlns="http://www.w3.org/2000/svg">
<path d="M8.92251 5.73771L31.4879 11.3479C33.4659 11.822 34.6769 13.837 34.1925 15.7729L29.8732 32.327C29.3888 34.2629 27.33 35.4481 25.352 34.974L2.82703 29.3638C0.808655 28.8897 -0.402368 26.8748 0.122409 24.9389L4.40135 8.38478C4.88576 6.44887 6.9445 5.26361 8.92251 5.73771Z" fill="black"/>
<path d="M21.1935 19.1706L14.1696 17.4322C12.0705 16.9186 10.7788 14.8247 11.3439 12.7702L13.1201 5.89573C13.6448 3.84128 15.7843 2.57701 17.8834 3.13013L24.9073 4.86851C27.0065 5.38212 28.2982 7.47607 27.7331 9.53051L25.9569 16.405C25.4321 18.4199 23.2927 19.6842 21.1935 19.1706Z" stroke="black" stroke-width="5.45" stroke-miterlimit="10" stroke-linecap="round"/>
<path d="M34.2332 20.8694L26.8056 19.0125L27.1689 17.6297C27.2497 17.3532 27.0478 17.0371 26.7653 16.9581L25.0295 16.5235C24.7469 16.4445 24.424 16.642 24.3432 16.9186L23.9396 18.3014L12.1523 15.3777L12.5156 13.995C12.5963 13.7184 12.3945 13.4023 12.1119 13.3233L10.3761 12.8887C10.0935 12.8097 9.77059 13.0072 9.68986 13.2838L9.32655 14.6666L3.0696 13.1258C2.30262 12.9282 1.57601 13.4023 1.37417 14.1135C1.17233 14.8641 1.65674 15.5753 2.38336 15.7728L8.64031 17.3137L8.277 18.6965C8.19626 18.973 8.3981 19.2891 8.68067 19.3681L10.4165 19.8027C10.699 19.8817 11.022 19.6842 11.1027 19.4076L11.466 18.0248L23.2533 20.9485L22.89 22.3313C22.8093 22.6078 23.0111 22.9239 23.2937 23.0029L25.0295 23.4375C25.312 23.5165 25.635 23.319 25.7157 23.0424L26.079 21.6596L33.5066 23.5165C34.2736 23.714 35.0002 23.2399 35.2021 22.5288C35.4039 21.7781 34.9599 21.0275 34.2332 20.8694Z" fill="#E5F6E5"/>
</svg>
