<svg width="256" height="259" viewBox="0 0 256 259" fill="none" xmlns="http://www.w3.org/2000/svg">
<path d="M169.571 200.033C168.632 198.768 166.255 197.448 165.315 196.183C164.738 195.365 165.635 194.564 165.02 193.782C164.514 193.112 162.534 192.351 162.028 191.681C161.414 190.825 162.311 190.025 161.697 189.169C161.156 188.388 159.139 187.663 158.598 186.882C158.091 186.212 159.098 185.524 158.555 184.816C157.941 183.961 155.816 183.05 155.202 182.194C154.696 181.524 155.666 180.798 155.16 180.129C154.69 179.496 152.746 178.845 152.277 178.139C151.627 177.246 152.415 176.334 151.765 175.441C150.754 174.027 148.232 172.558 147.221 171.144C145.993 169.433 146.204 167.703 144.976 165.991C143.82 164.428 141.226 162.811 140.07 161.248C139.022 159.797 139.486 158.402 138.439 156.951C137.5 155.612 135.05 154.291 134.111 152.952C132.847 151.203 133.058 149.473 131.83 147.762C130.855 146.385 128.368 145.027 127.394 143.651C126.418 142.349 126.99 141.065 126.015 139.762C124.823 138.088 122.156 136.47 120.964 134.796C119.664 133.01 119.802 131.205 118.539 129.383C117.239 127.597 114.5 125.83 113.199 124.044C112.044 122.408 112.326 120.825 111.135 119.151C110.088 117.701 107.602 116.269 106.554 114.818C105.724 113.665 106.368 112.529 105.537 111.376C104.49 109.925 101.968 108.456 100.921 107.005C99.9095 105.592 100.373 104.196 99.3247 102.819C98.3488 101.516 95.972 100.196 94.9961 98.8939C94.0566 97.6286 94.6292 96.345 93.6897 95.0798C92.7501 93.8145 90.4095 92.5321 89.47 91.2668C88.5304 90.0016 89.1394 88.7553 88.1999 87.4901C87.4419 86.4114 85.1353 85.3138 84.3773 84.2351C83.7272 83.3422 84.5517 82.4673 83.9015 81.5743C83.2876 80.7187 81.2353 79.8823 80.6214 79.0266C79.9712 78.1337 80.7595 77.2215 80.1093 76.3285C79.4954 75.4729 77.4067 74.5992 76.7565 73.7062C76.1426 72.8505 77.0035 72.013 76.3896 71.1573C75.7757 70.3017 73.7234 69.4653 73.1095 68.6097C72.5671 67.9024 73.5732 67.2141 73.0308 66.5069C72.2717 65.5019 70.0753 64.4425 69.3524 63.4749C68.4492 62.247 69.057 61.0745 68.1912 59.8101C67.288 58.5822 64.9463 57.3735 64.0805 56.1091C63.394 55.1789 64.1822 54.2667 63.5332 53.3C62.9193 52.4443 60.4312 51.1601 59.8173 50.3044C58.9504 49.1138 59.885 48.2772 59.0181 47.0866C58.0434 45.7102 55.5564 44.3523 54.5817 42.976C53.7874 41.86 54.4678 40.7621 53.6361 39.6825C52.9133 38.7149 50.7894 37.7302 50.0666 36.7626C49.3801 35.8323 50.2047 34.9574 49.5182 34.0271C48.8317 33.0968 46.6704 32.1485 46.0213 31.1818C45.4074 30.3262 46.2683 29.4886 45.6544 28.633C45.0405 27.7773 42.9519 26.9036 42.338 26.048C41.6152 25.0804 42.3683 24.0571 41.6454 23.0895L41.76 22.8328C48.9319 16.7995 63.0986 4.25142 63.0986 4.25142C78.65 19.4869 107.566 48.2347 122.818 63.7615C150.598 92.0898 170.319 111.986 198.587 139.767L204.142 145.477L214.39 160.279" fill="white"/>
<path d="M229.123 168.682C219.113 157.644 209.719 149.712 198.444 139.396C203.688 143.738 202.318 153.862 199.865 159.953C197.375 166.08 192.363 170.739 187.284 174.954C182.204 179.169 176.869 183.271 173.464 188.908C168.018 197.838 168.142 209.124 168.644 219.75C168.863 224.767 169.154 229.859 170.926 234.601C172.698 239.343 176.134 243.773 180.902 245.454C188.788 248.242 196.76 242.956 203.215 237.984C216.649 227.529 230.083 217.073 243.517 206.692C246.688 204.26 249.974 201.572 251.358 197.827C252.781 193.973 239.641 180.242 229.123 168.682Z" fill="#EE4266"/>
<path d="M211.466 173.149C198.079 182.904 193.957 192.072 190.341 204.307C189.68 206.548 189.129 208.828 189.316 211.116C189.502 213.405 190.499 215.777 192.397 217.054C194.55 218.518 197.501 218.481 199.986 217.516C202.434 216.587 204.526 214.843 206.506 213.134C212.408 208.191 219.269 200.79 221.299 193.366C223.409 185.574 215.373 178.064 211.466 173.149Z" fill="#4ECDC4"/>
</svg>
