<svg width="241" height="240" viewBox="0 0 241 240" fill="none" xmlns="http://www.w3.org/2000/svg">
<path d="M142.707 232.039V235.833H151.1V232.039H142.707Z" fill="#B3B3B3"/>
<path d="M177.024 186.669H236.654L202.337 235.833H142.707L177.024 186.669Z" fill="#B3B3B3"/>
<path d="M177.024 182.875H236.654L202.337 232.039H142.707L177.024 182.875Z" fill="#CCCCCC"/>
<path d="M202.337 228.239V232.039H206.156V228.239H202.337Z" fill="#E6E6E6"/>
<path d="M167.94 213.495L181.898 193.509L187.488 193.413L173.563 213.367L167.94 213.495Z" fill="black"/>
<path d="M184.979 207.396L182.202 211.376L176.67 211.383L179.452 207.396H184.979Z" fill="black"/>
<path d="M181.598 212.027L178.815 216.007L173.289 216.014L176.071 212.027H181.598Z" fill="black"/>
<path d="M186.974 197.49L189.757 193.509H195.283L192.501 197.49H186.974Z" fill="black"/>
<path d="M183.555 202.121L186.337 198.134H191.863L189.081 202.121H183.555Z" fill="black"/>
<path d="M180.115 206.752L182.898 202.765H188.424L185.641 206.752H180.115Z" fill="black"/>
<path d="M174.672 221.347L171.896 225.327L166.363 225.334L169.146 221.347H174.672Z" fill="black"/>
<path d="M171.291 225.978L168.509 229.958H162.982L165.765 225.978H171.291Z" fill="black"/>
<path d="M169.81 220.703L172.593 216.716H178.119L175.337 220.703H169.81Z" fill="black"/>
<path d="M195.271 193.367L192.495 197.348L186.963 197.354L189.745 193.367H195.271Z" fill="black"/>
<path d="M191.889 197.999L189.106 201.979L183.58 201.985L186.362 197.999H191.889Z" fill="black"/>
<path d="M193.847 188.092L196.63 184.105H202.156L199.374 188.092H193.847Z" fill="black"/>
<path d="M190.408 192.723L193.19 188.736H198.717L195.934 192.723H190.408Z" fill="black"/>
<path d="M184.965 207.318L182.189 211.299L176.656 211.305L179.439 207.318H184.965Z" fill="black"/>
<path d="M181.584 211.95L178.802 215.93H173.275L176.058 211.95H181.584Z" fill="black"/>
<path d="M180.103 206.674L182.886 202.688H188.412L185.63 206.674H180.103Z" fill="black"/>
<path d="M194.176 197.49L196.958 193.509H202.484L199.702 197.49H194.176Z" fill="black"/>
<path d="M181.873 221.347L179.091 225.327L173.564 225.334L176.347 221.347H181.873Z" fill="black"/>
<path d="M178.484 225.978L175.708 229.958H170.176L172.958 225.978H178.484Z" fill="black"/>
<path d="M177.01 220.703L179.792 216.716H185.318L182.536 220.703H177.01Z" fill="black"/>
<path d="M202.471 193.368L199.688 197.348L194.162 197.355L196.944 193.368H202.471Z" fill="black"/>
<path d="M199.084 197.999L196.308 201.979L190.775 201.985L193.558 197.999H199.084Z" fill="black"/>
<path d="M201.047 188.092L203.829 184.105H209.355L206.573 188.092H201.047Z" fill="black"/>
<path d="M197.607 192.723L200.39 188.736H205.916L203.134 192.723H197.607Z" fill="black"/>
<path d="M192.166 207.318L189.384 211.299L183.857 211.305L186.64 207.318H192.166Z" fill="black"/>
<path d="M188.777 211.95L186.001 215.93H180.469L183.251 211.95H188.777Z" fill="black"/>
<path d="M187.303 206.674L190.085 202.688H195.611L192.829 206.674H187.303Z" fill="black"/>
<path d="M189.066 221.347L186.29 225.327L180.758 225.334L183.54 221.347H189.066Z" fill="black"/>
<path d="M185.686 225.978L182.903 229.958H177.377L180.159 225.978H185.686Z" fill="black"/>
<path d="M184.204 220.703L186.987 216.716H192.52L189.737 220.703H184.204Z" fill="black"/>
<path d="M209.666 193.368L206.89 197.348L201.357 197.355L204.14 193.368H209.666Z" fill="black"/>
<path d="M206.283 197.999L203.507 201.979L197.974 201.985L200.757 197.999H206.283Z" fill="black"/>
<path d="M208.242 188.092L211.024 184.105H216.551L213.768 188.092H208.242Z" fill="black"/>
<path d="M204.808 192.723L207.591 188.736H213.117L210.335 192.723H204.808Z" fill="black"/>
<path d="M199.359 207.318L196.583 211.299L191.051 211.305L193.833 207.318H199.359Z" fill="black"/>
<path d="M195.979 211.95L193.202 215.93H187.67L190.452 211.95H195.979Z" fill="black"/>
<path d="M194.504 206.674L197.286 202.688H202.812L200.03 206.674H194.504Z" fill="black"/>
<path d="M196.352 221.347L193.569 225.327L188.043 225.334L190.825 221.347H196.352Z" fill="black"/>
<path d="M192.965 225.978L190.189 229.958H184.656L187.439 225.978H192.965Z" fill="black"/>
<path d="M191.488 220.703L194.271 216.716H199.797L197.014 220.703H191.488Z" fill="black"/>
<path d="M216.951 193.368L214.169 197.348L208.642 197.355L211.425 193.368H216.951Z" fill="black"/>
<path d="M213.562 197.999L210.786 201.979L205.254 201.985L208.036 197.999H213.562Z" fill="black"/>
<path d="M215.527 188.092L218.31 184.105H223.836L221.053 188.092H215.527Z" fill="black"/>
<path d="M212.088 192.723L214.87 188.736H220.396L217.614 192.723H212.088Z" fill="black"/>
<path d="M206.645 207.318L203.862 211.299L198.336 211.305L201.118 207.318H206.645Z" fill="black"/>
<path d="M203.258 211.95L200.482 215.93H194.949L197.732 211.95H203.258Z" fill="black"/>
<path d="M201.781 206.674L204.564 202.688H210.09L207.307 206.674H201.781Z" fill="black"/>
<path d="M203.547 221.347L200.771 225.327L195.238 225.334L198.021 221.347H203.547Z" fill="black"/>
<path d="M200.164 225.978L197.382 229.958H191.855L194.638 225.978H200.164Z" fill="black"/>
<path d="M198.683 220.703L201.466 216.716H206.992L204.21 220.703H198.683Z" fill="black"/>
<path d="M224.145 193.368L221.368 197.348L215.836 197.355L218.618 193.368H224.145Z" fill="black"/>
<path d="M220.764 197.999L217.988 201.979L212.455 201.985L215.237 197.999H220.764Z" fill="black"/>
<path d="M222.721 188.092L225.503 184.105H231.029L228.247 188.092H222.721Z" fill="black"/>
<path d="M219.289 192.723L222.071 188.736H227.598L224.815 192.723H219.289Z" fill="black"/>
<path d="M213.84 207.318L211.064 211.299L205.531 211.305L208.314 207.318H213.84Z" fill="black"/>
<path d="M210.457 211.95L207.681 215.93H202.148L204.931 211.95H210.457Z" fill="black"/>
<path d="M208.982 206.674L211.765 202.688H217.291L214.509 206.674H208.982Z" fill="black"/>
<path d="M207.803 221.347L205.027 225.327L202.07 225.334L204.853 221.347H207.803Z" fill="black"/>
<path d="M204.422 225.978L201.639 229.958H198.683L201.465 225.978H204.422Z" fill="black"/>
<path d="M205.518 220.703L208.3 216.716H211.25L208.468 220.703H205.518Z" fill="black"/>
<path d="M228.402 193.368L225.626 197.348L222.67 197.355L225.452 193.368H228.402Z" fill="black"/>
<path d="M225.02 197.999L222.237 201.979L219.287 201.985L222.07 197.999H225.02Z" fill="black"/>
<path d="M229.555 188.092L232.337 184.105H235.287L232.505 188.092H229.555Z" fill="black"/>
<path d="M226.115 192.723L228.898 188.736H231.848L229.065 192.723H226.115Z" fill="black"/>
<path d="M218.096 207.318L215.32 211.299L212.363 211.305L215.146 207.318H218.096Z" fill="black"/>
<path d="M214.715 211.95L211.932 215.93H208.982L211.765 211.95H214.715Z" fill="black"/>
<path d="M215.809 206.674L218.591 202.688H221.541L218.759 206.674H215.809Z" fill="black"/>
<path d="M237.297 105.932H240.479V115.02H237.297V105.932Z" fill="#E6E6E6"/>
<path d="M236.653 186.669L237.297 105.932L202.98 155.096V235.833L236.653 186.669Z" fill="#E6E6E6"/>
<path d="M240.479 186.669V105.932L206.155 155.096V235.833L240.479 186.669Z" fill="#B3B3B3"/>
<path d="M197.994 232.039V235.833H206.387V232.039H197.994Z" fill="#B3B3B3"/>
<path d="M28.3404 199.113H163.902L135.562 239.71H0.000350952L28.3404 199.113Z" fill="black"/>
<path d="M134.712 33.5556C141.52 38.4829 142.139 48.389 140.779 56.6849C139.42 64.9808 136.76 73.5794 139.324 81.5855C141.559 88.5675 147.491 93.9392 149.494 100.992C151.942 109.584 150.183 122.421 153.732 127.071C160.096 135.399 159.271 141.389 146.943 143.605C143.433 144.236 139.865 144.346 136.297 144.223C126.262 143.869 116.033 143.566 106.385 146.336C97.8186 148.796 90.1281 153.569 82.4892 158.162C74.8503 162.754 66.973 167.288 58.2649 169.195C49.5568 171.101 35.1485 171.63 29.7252 158.393C26.26 148.854 22.7368 138.903 23.7996 128.804C24.5918 121.3 27.8767 114.273 29.1133 106.834C30.788 96.741 28.6367 86.4613 26.8461 76.3941C25.0942 66.5266 23.6772 56.4788 24.624 46.5018C25.5708 36.5248 29.0875 26.5092 36.0502 19.3018C42.7616 12.3585 52.0494 8.57127 61.2406 5.60845C75.6232 0.977433 91.1651 -2.09488 105.786 1.72458C120.407 5.54404 133.662 17.8848 134.345 32.9823L134.712 33.5556Z" fill="black"/>
<path d="M105.18 125.242C102.423 125.603 101 129.467 101 132.179H91.2287L92.8389 125.796" fill="white"/>
<path d="M130.237 44.3315C122.682 54.7851 103.636 61.0457 98.4063 73.393C92.9831 86.2039 94.619 101.263 93.9749 114.982C93.8075 118.589 93.8848 122.267 92.8414 125.796H97.8137C106.599 125.796 112.84 124.07 119.674 117.81C127.365 110.763 130.862 99.3756 130.862 90.0298C135.48 89.5275 144.169 89.4888 141.992 83.576C139.995 78.1592 134.778 72.079 132.53 66.7653C129.464 59.5128 130.972 52.1766 130.598 44.6278" fill="white"/>
<path d="M160.108 188.891C162.227 188.769 168.282 188.788 173.428 188.679C174.252 188.659 175.257 188.189 175.856 189.451C176.687 191.223 176.835 191.886 177.447 193.773C177.679 194.488 177.801 195.274 177.872 196.156C178.304 201.773 175.128 199.061 174.156 198.61C172.204 197.702 170.839 199.989 171.747 202.127C173.061 205.225 170.858 205.148 170.182 204.543C167.831 202.443 165.795 197.792 161.248 198.05" fill="white"/>
<path d="M174.433 193.123C179.457 193.902 184.198 195.673 188.062 198.198C188.642 198.578 189.254 199.171 188.887 199.679C188.533 200.162 187.612 200.143 186.897 200.04C183.277 199.512 179.773 198.578 176.527 197.271" fill="white"/>
<path d="M174.15 191.306C178.607 191.036 183.103 191.763 187.077 193.412C187.676 193.657 188.359 194.102 188.191 194.668C188.03 195.203 187.251 195.37 186.613 195.415C183.412 195.647 180.191 195.461 177.087 194.868" fill="white"/>
<path d="M172.236 188.859C176.642 188.118 181.228 188.369 185.414 189.58C186.046 189.761 186.786 190.128 186.702 190.707C186.619 191.255 185.865 191.5 185.24 191.616C182.084 192.182 178.845 192.337 175.669 192.079" fill="white"/>
<path d="M174.247 193.986C177.461 196.118 180.759 198.437 182.517 201.87C182.781 202.385 182.994 203.106 182.549 203.473C182.131 203.828 181.493 203.551 181.036 203.248C178.711 201.747 176.836 199.866 173.455 198.411" fill="white"/>
<path d="M142.885 208.774C145.307 208.639 152.218 208.659 158.092 208.53C159.033 208.51 160.186 207.969 160.862 209.412C161.815 211.441 161.983 212.195 162.678 214.352C162.942 215.17 163.065 216.066 163.161 217.077C163.696 222.655 160.07 220.291 158.917 219.879C156.585 219.041 149.359 218.951 144.174 219.247" fill="white"/>
<path d="M159.13 213.566C164.946 214.468 168.946 216.516 173.409 219.447C174.085 219.891 174.382 221.134 173.957 221.727C173.551 222.287 171.773 221.502 170.994 221.199C166.62 219.518 165.712 219.286 161.545 218.378" fill="white"/>
<path d="M158.808 211.467C163.968 211.151 171.413 214.236 176.012 216.136C176.708 216.426 177.494 216.935 177.3 217.592C177.12 218.21 176.199 218.61 175.478 218.462C171.677 217.689 165.803 216.278 162.209 215.589" fill="white"/>
<path d="M156.594 208.626C161.695 207.77 168.554 209.637 173.34 211.692C174.036 211.995 174.931 212.323 174.828 212.993C174.731 213.624 173.862 214.153 173.134 214.043C169.263 213.45 164.239 212.639 160.561 212.343" fill="white"/>
<path d="M158.917 214.559C162.633 217.025 167.941 218.23 169.982 222.204C170.292 222.803 170.536 223.634 170.015 224.065C169.525 224.471 168.791 224.149 168.263 223.808C165.57 222.069 162.324 221.038 157.867 219.608" fill="white"/>
<path d="M111.131 139.322C110.893 151.044 109.457 168.325 109.341 172.834C109.276 175.372 109.122 179.133 109.205 179.912C109.444 180.756 110.229 180.84 111.923 181.291C126.113 185.072 163.953 186.36 163.953 186.36V200.787C152.192 203.402 103.125 207.718 89.8311 193.606C84.5366 187.989 80.8846 183.571 82.4047 167.449" fill="#FFE66D"/>
<path d="M71.5585 138.6C82.6949 131.638 86.4048 129.97 101.85 132.179C108.781 133.171 121.527 135.135 121.527 151.302C121.527 167.469 123.034 184.582 123.459 192.376C123.885 200.169 124.104 239.703 124.104 239.703H62.8053L70.6181 164.029" fill="url(#paint0_linear)"/>
<path d="M146.518 221.102C134.756 223.717 85.6896 228.033 72.3955 213.921C67.1011 208.304 63.4491 203.886 64.9691 187.764C66.4892 171.642 68.1574 140.191 75.8092 137.821C90.8616 133.152 93.9146 148.301 93.6827 159.637C93.4444 171.359 92.0081 188.64 91.8922 193.149C91.8278 195.686 91.6732 199.448 91.7569 200.227C91.9952 201.071 92.781 201.155 94.475 201.606C108.664 205.386 146.505 206.675 146.505 206.675" fill="#FFE66D"/>
<path d="M61.2401 5.60205C52.0489 8.56487 42.7676 12.3521 36.0497 19.2954C29.0806 26.5028 25.5703 36.5184 24.6235 46.4954C23.6767 56.4724 25.0937 66.5202 26.8456 76.3877C28.6362 86.4613 30.7875 96.741 29.1128 106.827C27.8762 114.267 24.5913 121.294 23.7991 128.797C22.7363 138.89 26.2595 148.848 29.7247 158.387C35.1544 171.623 49.5627 171.101 58.2644 169.188C66.9661 167.275 74.8498 162.748 82.4887 158.155C90.1276 153.563 101.142 152.184 100.568 141.879C100.027 132.185 93.7603 126.298 93.9664 114.988" fill="black"/>
<path d="M123.697 35.5909C114.429 46.7337 97.7982 46.4052 88.0402 57.0971C75.4997 70.8356 76.2469 90.7831 77.0907 108.103C77.1486 109.346 75.2163 109.339 75.1584 108.103C74.321 90.9506 73.7414 71.9499 85.0001 57.709C89.5216 51.983 95.473 48.55 102.133 45.8319C109.392 42.8691 117.147 40.4667 122.338 34.2254C123.124 33.2722 124.483 34.6441 123.697 35.5909Z" fill="white"/>
<path d="M103.08 28.9827C94.0303 36.2416 82.5784 39.4363 73.6384 46.8111C64.6018 54.2568 58.3026 64.5945 59.0433 76.5553C59.1206 77.7984 57.1883 77.7919 57.111 76.5553C56.396 65.0647 61.8386 55.1135 70.0701 47.3844C79.3128 38.7085 91.9113 35.4816 101.714 27.6172C102.674 26.8443 104.052 28.2033 103.08 28.9827Z" fill="white"/>
<path d="M110.881 13.1831C92.0545 7.48936 71.3083 11.2509 55.6376 23.1279C54.6457 23.8815 53.686 22.2004 54.665 21.4597C70.7158 9.29282 92.1318 5.49268 111.397 11.3217C112.582 11.676 112.079 13.5438 110.881 13.1831Z" fill="white"/>
<path d="M78.8051 132.192C81.053 144.127 73.0534 155.018 61.0346 156.5C59.8044 156.654 59.8173 154.715 61.0346 154.567C71.7523 153.247 78.9404 143.302 76.9437 132.707C76.7118 131.489 78.5732 130.968 78.8051 132.192Z" fill="white"/>
<path d="M138.197 104.76C140.232 108.244 139.343 111.935 139.259 115.761C139.137 121.133 140.535 126.253 143.143 130.923C143.749 132.011 142.08 132.984 141.475 131.895C139.427 128.231 138.036 124.295 137.54 120.115C137.005 115.593 138.899 109.797 136.528 105.732C135.904 104.657 137.572 103.684 138.197 104.76Z" fill="white"/>
<path d="M127.447 117.931C127.48 122.801 128.517 127.432 130.616 131.831C131.151 132.945 129.483 133.931 128.948 132.803C126.707 128.102 125.547 123.136 125.515 117.931C125.509 116.688 127.441 116.688 127.447 117.931Z" fill="white"/>
<path d="M61.3111 92.1227C60.8732 107.793 70.3928 122.401 66.7988 138.175C66.5219 139.386 64.6604 138.877 64.9374 137.66C68.4734 122.17 58.9538 107.568 59.3853 92.1227C59.4175 90.8796 61.3498 90.8732 61.3111 92.1227Z" fill="white"/>
<path d="M84.0295 25.3046C74.9091 34.6891 61.0418 35.565 50.6719 42.9463C39.5227 50.8815 35.188 66.2495 39.761 78.9768C40.1797 80.149 38.3183 80.6514 37.8996 79.4921C33.5713 67.4411 36.8562 53.2775 46.0345 44.3182C56.3528 34.2511 72.5968 34.2897 82.664 23.9392C83.5271 23.0439 84.8925 24.4094 84.0295 25.3046Z" fill="white"/>
<path d="M46.5566 103.968C49.4678 113.635 50.6916 123.632 50.1763 133.712C50.1119 134.948 48.1797 134.955 48.2441 133.712C48.7465 123.793 47.5613 113.99 44.6887 104.483C44.3344 103.291 46.1959 102.776 46.5566 103.968Z" fill="white"/>
<defs>
<linearGradient id="paint0_linear" x1="96.4782" y1="187.214" x2="93.7852" y2="233.92" gradientUnits="userSpaceOnUse">
<stop stop-color="#FFE66D"/>
<stop offset="0.444" stop-color="#F5DD69"/>
<stop offset="1" stop-color="#F2DA68"/>
</linearGradient>
</defs>
</svg>
